<?xml version="1.0" standalone="no"?><!DOCTYPE svg PUBLIC "-//W3C//DTD SVG 1.1//EN" "http://www.w3.org/Graphics/SVG/1.1/DTD/svg11.dtd"><svg t="1587102570875" class="icon" viewBox="0 0 1024 1024" version="1.1" xmlns="http://www.w3.org/2000/svg" p-id="2889" xmlns:xlink="http://www.w3.org/1999/xlink" width="200" height="200"><defs><style type="text/css"></style></defs><path d="M827.505778 647.054222c0 177.152-141.994667 320.056889-317.838222 320.056889-175.843556 0-317.838222-142.904889-317.838223-320.056889V583.111111h635.676445v64zM679.139556 327.111111a42.666667 42.666667 0 0 0 0 85.333333 42.666667 42.666667 0 1 0 0-85.333333z m-338.944 0a42.666667 42.666667 0 1 0 0 85.333333 42.666667 42.666667 0 0 0 0-85.333333z m495.786666-138.695111l-63.544889 64.056889c36.010667 51.2 55.068444 113.038222 55.068445 181.304889v64.056889H191.829333V433.777778c0-66.161778 21.219556-130.104889 55.068445-181.304889L183.352889 188.416a44.088889 44.088889 0 0 1 0-61.838222 43.349333 43.349333 0 0 1 61.44 0l61.44 61.838222A314.368 314.368 0 0 1 509.724444 113.777778c78.392889 0 148.309333 27.761778 203.434667 74.638222l61.44-61.838222a43.406222 43.406222 0 0 1 61.44 0 44.088889 44.088889 0 0 1 0 61.838222z" fill="#ffffff" p-id="2890"></path></svg>