<?xml version="1.0" standalone="no"?>
<!DOCTYPE svg PUBLIC "-//W3C//DTD SVG 1.1//EN" "http://www.w3.org/Graphics/SVG/1.1/DTD/svg11.dtd">
<svg t="1587020102365" class="icon" viewBox="0 0 1025 1024" version="1.1"
  xmlns="http://www.w3.org/2000/svg" p-id="4057"
  xmlns:xlink="http://www.w3.org/1999/xlink" width="200.1953125" height="200">
  <path d="M513.72032 0c282.76736 0 512 229.23264 512 512 0 282.75712-229.23264 512-512 512s-512-229.24288-512-512c0-282.76736 229.23264-512 512-512z" fill="#4681A0" p-id="4058"></path>
  <path d="M710.30784 597.98528c0.80896 9.46176 1.55648 17.28512 2.1504 25.09824 1.6384 21.54496 0.256 42.84416-5.71392 63.68256-9.55392 33.42336-30.72 57.856-59.8528 76.02176-28.98944 18.08384-60.84608 29.39904-93.61408 38.08256-39.05536 8.28416-40.84736 18.52416-54.92736 38.52288-15.23712-20.10112-17.8688-30.76096-54.9376-38.52288-32.74752-8.68352-64.62464-19.99872-93.61408-38.08256-29.1328-18.15552-50.29888-42.5984-59.8528-76.02176-5.95968-20.8384-7.34208-42.1376-5.70368-63.68256 0.59392-7.82336 1.3312-15.63648 2.14016-25.09824l-28.71296 2.85696c19.8144-37.33504 49.72544-69.376 82.23744-98.77504-1.86368 35.33824 2.9696 81.50016 12.47232 116.89984-14.86848-7.34208-30.06464-14.7968-30.06464-14.7968-9.216 29.6448-1.06496 62.86336 20.56192 85.54496 17.03936 17.8176 38.0928 28.45696 62.12608 33.49504 15.62624 3.2768 31.21152 3.98336 46.4384-1.8432 17.65376-5.18144 21.06368-20.98176 21.06368-26.66496 0-5.70368 0.22528-171.85792 0.01024-244.79744-0.0512-12.8-8.26368-22.1184-19.87584-26.64448-10.48576-4.07552-21.5552-7.0144-32.6144-9.25696-11.48928-2.33472-28.08832-3.21536-39.63904-4.73088V378.6752h92.59008c0.08192-1.85344-0.13312-20.6848-0.31744-35.01056-29.75744-10.56768-51.11808-38.912-51.11808-72.31488 0-42.42432 34.37568-76.8 76.8-76.8s76.8 34.37568 76.8 76.8c0 33.3312-21.25824 61.61408-50.93376 72.2432 0.01024 14.336 0.03072 33.20832 0.11264 35.05152h91.62752v30.60736c-11.56096 1.50528-27.84256 2.39616-39.33184 4.72064-11.04896 2.2528-22.1184 5.18144-32.6144 9.2672-14.3872 6.02112-19.87584 11.83744-19.87584 26.64448-0.22528 72.96 0.24576 171.85792 0.01024 244.79744-0.04096 12.98432 8.01792 21.67808 21.07392 26.66496 15.21664 5.8368 30.8224 5.14048 46.4384 1.86368 24.03328-5.03808 45.08672-15.67744 62.11584-33.51552 21.63712-22.66112 29.78816-55.90016 20.57216-85.52448l-30.07488 14.7968c9.17504-32.1024 14.57152-73.40032 12.47232-116.89984 32.50176 29.37856 62.43328 61.41952 82.23744 98.77504l-28.66176-2.85696zM534.20032 271.36a35.84 35.84 0 1 0-71.68 0 35.84 35.84 0 0 0 71.68 0z" fill="#3F7490" p-id="4059"></path>
  <path d="M730.78784 587.74528c0.80896 9.46176 1.55648 17.28512 2.1504 25.09824 1.6384 21.54496 0.256 42.84416-5.71392 63.68256-9.55392 33.42336-30.72 57.856-59.8528 76.02176-28.98944 18.08384-60.84608 29.39904-93.61408 38.08256-39.05536 8.28416-40.84736 18.52416-54.92736 38.52288-15.23712-20.10112-17.8688-30.76096-54.9376-38.52288-32.74752-8.68352-64.62464-19.99872-93.61408-38.08256-29.1328-18.15552-50.29888-42.5984-59.8528-76.02176-5.95968-20.8384-7.34208-42.1376-5.70368-63.68256 0.59392-7.82336 1.3312-15.63648 2.14016-25.09824l-28.71296 2.85696c19.8144-37.33504 49.72544-69.376 82.23744-98.77504-1.86368 35.33824 2.9696 81.50016 12.47232 116.89984-14.86848-7.34208-30.06464-14.7968-30.06464-14.7968-9.216 29.6448-1.06496 62.86336 20.56192 85.54496 17.03936 17.8176 38.0928 28.45696 62.12608 33.49504 15.62624 3.2768 31.21152 3.98336 46.4384-1.8432 17.65376-5.18144 21.06368-20.98176 21.06368-26.66496 0-5.70368 0.22528-171.85792 0.01024-244.79744-0.0512-12.8-8.26368-22.1184-19.87584-26.64448-10.48576-4.07552-21.5552-7.0144-32.6144-9.25696-11.48928-2.33472-28.08832-3.21536-39.63904-4.73088V368.4352h92.59008c0.08192-1.85344-0.13312-20.6848-0.31744-35.01056-29.75744-10.56768-51.11808-38.912-51.11808-72.31488 0-42.42432 34.37568-76.8 76.8-76.8s76.8 34.37568 76.8 76.8c0 33.3312-21.25824 61.61408-50.93376 72.2432 0.01024 14.336 0.03072 33.20832 0.11264 35.05152h91.62752v30.60736c-11.56096 1.50528-27.84256 2.39616-39.33184 4.72064-11.04896 2.2528-22.1184 5.18144-32.6144 9.2672-14.3872 6.02112-19.87584 11.83744-19.87584 26.64448-0.22528 72.96 0.24576 171.85792 0.01024 244.79744-0.04096 12.98432 8.01792 21.67808 21.07392 26.66496 15.21664 5.8368 30.8224 5.14048 46.4384 1.86368 24.03328-5.03808 45.08672-15.67744 62.11584-33.51552 21.63712-22.66112 29.78816-55.90016 20.57216-85.52448l-30.07488 14.7968c9.17504-32.1024 14.57152-73.40032 12.47232-116.89984 32.50176 29.37856 62.43328 61.41952 82.23744 98.77504l-28.66176-2.85696zM554.68032 261.12a35.84 35.84 0 1 0-71.68 0 35.84 35.84 0 0 0 71.68 0z" fill="#EDEDED" p-id="4060"></path>
  <path d="M518.84032 266.24a15.36 15.36 0 0 1-15.36-15.36V0.26624l10.24-0.26624c6.87104 0 13.68064 0.24576 20.48 0.52224V250.88a15.36 15.36 0 0 1-15.36 15.36z" fill="#F0C75E" p-id="4061"></path>
  <path d="M503.48032 250.56256l30.72-8.77568v-21.2992l-30.72 8.78592z m0-72.4992v21.2992l30.72-8.77568v-21.2992z m0-153.6v21.2992l30.72-8.77568v-21.2992z m0 102.41024v21.28896l30.72-8.77568v-21.28896z m0-51.21024v21.2992l30.72-8.77568v-21.2992z" fill="#DDB757" p-id="4062"></path>
  <path d="M708.48512 329.14432c16.62976 0 24.23808 5.5808 33.87392 12.6464 10.60864 7.7824 22.64064 16.60928 45.8752 16.60928 23.25504 0 35.2768-8.82688 45.89568-16.60928 9.6256-7.0656 17.24416-12.6464 33.8944-12.6464 16.62976 0 24.23808 5.5808 33.87392 12.6464 10.60864 7.7824 22.64064 16.60928 45.8752 16.60928 23.25504 0 35.29728-8.82688 45.91616-16.60928l2.34496-1.71008a512.4096 512.4096 0 0 0-7.96672-20.79744c-2.22208 1.49504-4.352 3.03104-6.38976 4.52608-9.63584 7.0656-17.2544 12.6464-33.91488 12.6464-16.62976 0-24.23808-5.5808-33.87392-12.6464-10.58816-7.7824-22.62016-16.60928-45.85472-16.60928-23.25504 0-35.28704 8.81664-45.89568 16.60928-9.6256 7.0656-17.2544 12.6464-33.8944 12.6464-16.62976 0-24.23808-5.5808-33.87392-12.6464-10.60864-7.7824-22.64064-16.60928-45.88544-16.60928-5.7856 0-10.47552 4.90496-10.47552 10.96704s4.68992 10.97728 10.47552 10.97728z m314.50112 129.82272c-12.14464-1.32096-18.944-6.23616-27.15648-12.27776-10.60864-7.7824-22.64064-16.59904-45.88544-16.59904s-35.2768 8.81664-45.88544 16.59904c-9.6256 7.07584-17.2544 12.65664-33.8944 12.65664-16.62976 0-24.23808-5.5808-33.87392-12.65664-10.60864-7.7824-22.64064-16.59904-45.8752-16.59904-5.7856 0-10.47552 4.90496-10.47552 10.9568s4.68992 10.97728 10.47552 10.97728c16.62976 0 24.23808 5.5808 33.87392 12.63616 10.60864 7.7824 22.64064 16.61952 45.8752 16.61952 23.25504 0 35.2768-8.83712 45.89568-16.61952 9.6256-7.05536 17.24416-12.63616 33.88416-12.63616s24.24832 5.5808 33.88416 12.63616c9.79968 7.18848 20.9408 15.18592 40.87808 16.384a522.89536 522.89536 0 0 0-1.72032-22.07744z m-826.70592 93.26592c0-6.06208-4.68992-10.9568-10.46528-10.9568-16.65024 0-24.25856-5.5808-33.90464-12.65664-10.61888-7.7824-22.66112-16.59904-45.90592-16.59904-23.25504 0-35.28704 8.81664-45.90592 16.59904-9.63584 7.07584-17.2544 12.65664-33.91488 12.65664-10.72128 0-17.68448-2.34496-23.86944-5.87776 0.36864 8.23296 0.96256 16.40448 1.71008 24.53504 6.13376 2.00704 13.32224 3.28704 22.15936 3.28704 23.25504 0 35.29728-8.83712 45.91616-16.61952 9.63584-7.05536 17.2544-12.63616 33.90464-12.63616s24.25856 5.5808 33.90464 12.63616c10.61888 7.7824 22.66112 16.61952 45.90592 16.61952 5.77536-0.01024 10.46528-4.92544 10.46528-10.98752z m61.21472-123.60704c-16.65024 0-24.25856-5.5808-33.90464-12.65664-10.61888-7.7824-22.66112-16.60928-45.90592-16.60928-23.25504 0-35.28704 8.82688-45.90592 16.60928-9.63584 7.07584-17.2544 12.65664-33.91488 12.65664-16.62976 0-24.23808-5.5808-33.87392-12.65664C53.38112 408.18688 41.34912 399.36 18.11456 399.36l-3.85024 0.18432a504.97536 504.97536 0 0 0-4.47488 22.36416 58.368 58.368 0 0 1 8.32512-0.60416c16.62976 0 24.23808 5.5808 33.87392 12.63616C62.59712 441.72288 74.62912 450.56 97.86368 450.56c23.25504 0 35.29728-8.83712 45.91616-16.61952 9.63584-7.05536 17.2544-12.63616 33.90464-12.63616s24.25856 5.5808 33.90464 12.63616C222.208 441.72288 234.25024 450.56 257.49504 450.56c5.77536 0 10.46528-4.9152 10.46528-10.97728s-4.68992-10.9568-10.46528-10.9568z" fill="#3F7490" p-id="4063"></path>
</svg>