<?xml version="1.0" standalone="no" ?>
<!DOCTYPE svg PUBLIC "-//W3C//DTD SVG 1.1//EN" "http://www.w3.org/Graphics/SVG/1.1/DTD/svg11.dtd">
<svg t="1584602319226" class="icon" viewBox="0 0 1024 1024" version="1.1"
  xmlns="http://www.w3.org/2000/svg" p-id="1136"
  xmlns:xlink="http://www.w3.org/1999/xlink" width="200" height="200">
  <path d="M285.696 453.563733c13.755733 0 27.477333 5.495467 38.468267 15.940267l446.1568 441.787733c21.435733 21.4016 21.435733 55.466667 0.546133 76.9024a54.545067 54.545067 0 0 1-76.9024 0.546134L247.773867 546.986667a54.545067 54.545067 0 0 1-0.546134-76.936534c9.898667-11.537067 24.200533-16.4864 38.468267-16.4864z" fill="#666666" p-id="1137"></path>
  <path d="M726.9376 7.406933c13.7216 0 27.4432 5.495467 38.434133 15.940267 21.435733 21.435733 21.435733 55.5008 0.546134 76.936533L324.164267 546.4064a54.545067 54.545067 0 0 1-76.936534 0.580267 54.545067 54.545067 0 0 1-0.546133-76.936534L688.469333 23.893333a53.316267 53.316267 0 0 1 38.468267-16.4864z" fill="#666666" p-id="1138"></path>
</svg>