<?xml version="1.0" standalone="no"?>
<!DOCTYPE svg PUBLIC "-//W3C//DTD SVG 1.1//EN" "http://www.w3.org/Graphics/SVG/1.1/DTD/svg11.dtd">
<svg t="1606377586193" class="icon" viewBox="0 0 1024 1024" version="1.1"
  xmlns="http://www.w3.org/2000/svg" p-id="12796"
  xmlns:xlink="http://www.w3.org/1999/xlink" width="200" height="200">
  <path d="M1023.672 512c0 282.568-229.102 511.672-511.672 511.672C229.416 1023.672 0.328 794.568 0.328 512 0.328 229.4 229.416 0.328 512 0.328 794.57 0.328 1023.672 229.4 1023.672 512z" fill="#F6BB42" p-id="12797"></path>
  <path d="M1011.68 401.382a507.76 507.76 0 0 0-10.898-41.192l-337.878 90.536 303.058-174.982a496.07 496.07 0 0 0-21.27-36.944l-303.086 174.982L889.132 166.22a499.216 499.216 0 0 0-30.074-30.2l-247.62 247.624 175.2-303.43c-11.992-7.62-24.266-14.804-36.882-21.424l-175.23 303.524 90.722-338.626a502.618 502.618 0 0 0-41.192-11.056l-90.74 338.658V0.764a483.68 483.68 0 0 0-21.314-0.436c-7.136 0-14.24 0.124-21.314 0.436v350.526L399.948 12.632a502.4 502.4 0 0 0-41.192 11.056l90.738 338.626-175.232-303.524a496.128 496.128 0 0 0-36.882 21.424l175.184 303.43L164.942 136.022a508.38 508.38 0 0 0-30.09 30.2l247.56 247.56L79.308 238.8a508.478 508.478 0 0 0-21.284 36.944l303.072 174.982L23.22 360.192a514.438 514.438 0 0 0-10.9 41.192l337.736 90.504H0.718a514.8 514.8 0 0 0 0.11 42.658h349.23L12.836 624.896a508.788 508.788 0 0 0 11.102 41.194l337.16-90.38L59.008 750.16a527.448 527.448 0 0 0 21.44 36.852l301.978-174.358L136.022 859.028a513.514 513.514 0 0 0 30.2 30.106l246.342-246.342-174.138 301.65a519.98 519.98 0 0 0 36.928 21.33l174.154-301.65-90.144 336.378a517.49 517.49 0 0 0 41.208 10.992l90.114-336.316v348.058c7.074 0.282 14.178 0.438 21.314 0.438 7.136 0 14.242-0.156 21.314-0.438V675.144l90.116 336.348a520.742 520.742 0 0 0 41.222-10.992l-90.128-336.378 174.136 301.65a526.45 526.45 0 0 0 36.914-21.33l-174.136-301.65 246.342 246.34a508.65 508.65 0 0 0 30.2-30.106L641.606 612.654l301.93 174.358a516.114 516.114 0 0 0 21.458-36.882l-302.09-174.42 337.16 90.38a515.304 515.304 0 0 0 11.118-41.194l-337.22-90.35h349.212c0.312-7.494 0.5-14.988 0.5-22.546 0-6.746-0.124-13.43-0.376-20.112h-349.34l337.722-90.506z" fill="#FFCE54" p-id="12798"></path>
  <path d="M959.714 514.654c0 247.248-200.436 447.712-447.714 447.712-247.264 0-447.712-200.464-447.712-447.712S264.736 66.942 512 66.942c247.28 0 447.714 200.464 447.714 447.712z" fill="#FFCE54" p-id="12799"></path>
  <path d="M506.488 150.294c-11.384 3.06-18.128 14.742-15.084 26.108s14.74 18.114 26.108 15.052c11.382-3.03 18.128-14.74 15.086-26.108-3.048-11.368-14.742-18.112-26.11-15.052zM506.488 832.514c-11.384 3.03-18.128 14.74-15.084 26.108 3.044 11.4 14.74 18.144 26.108 15.084 11.382-3.06 18.128-14.74 15.086-26.108-3.048-11.368-14.742-18.114-26.11-15.084zM326.37 201.512c-8.324 8.306-8.324 21.798 0 30.136 8.324 8.338 21.83 8.338 30.152 0 8.324-8.338 8.324-21.83 0-30.136-8.322-8.34-21.83-8.34-30.152 0zM667.462 792.32c-8.306 8.338-8.306 21.83 0 30.168 8.338 8.306 21.862 8.306 30.17 0 8.304-8.338 8.304-21.83 0-30.168-8.308-8.306-21.832-8.306-30.17 0zM211.068 362.034c11.368 3.06 23.062-3.686 26.108-15.084 3.06-11.368-3.7-23.08-15.068-26.108-11.382-3.03-23.064 3.716-26.108 15.084s3.7 23.046 15.068 26.108zM812.934 661.966c-11.37-3.06-23.048 3.686-26.11 15.052s3.686 23.078 15.052 26.108c11.4 3.06 23.08-3.686 26.138-15.052 3.032-11.366-3.714-23.078-15.08-26.108zM165.378 491.388c-11.384 3.06-18.13 14.74-15.084 26.108s14.742 18.144 26.108 15.084c11.384-3.03 18.128-14.74 15.084-26.108-3.06-11.368-14.74-18.112-26.108-15.084zM873.708 506.472c-3.062-11.368-14.742-18.114-26.11-15.084-11.368 3.06-18.114 14.74-15.052 26.108 3.03 11.368 14.708 18.144 26.108 15.084 11.368-3.03 18.112-14.74 15.054-26.108zM201.512 667.462c-8.324 8.338-8.324 21.83 0 30.168 8.322 8.306 21.83 8.306 30.152 0 8.324-8.338 8.324-21.83 0-30.168-8.322-8.306-21.83-8.306-30.152 0zM792.32 326.37c-8.306 8.306-8.306 21.798 0 30.136 8.34 8.338 21.862 8.338 30.168 0 8.308-8.338 8.308-21.83 0-30.136-8.306-8.34-21.828-8.34-30.168 0zM346.964 786.824c-11.368-3.06-23.062 3.686-26.108 15.052s3.7 23.078 15.068 26.108c11.368 3.06 23.064-3.684 26.108-15.052 3.062-11.368-3.698-23.078-15.068-26.108zM677.02 237.176c11.398 3.06 23.078-3.686 26.14-15.084 3.028-11.368-3.718-23.08-15.086-26.108s-23.046 3.716-26.108 15.084 3.686 23.048 15.054 26.108z" fill="#F6BB42" p-id="12800"></path>
  <path d="M512 298.792c-105.962 0-191.876 85.914-191.876 191.876 0 56.806 24.704 107.87 63.958 143.002v70.206h255.836v-70.206c39.258-35.132 63.958-86.196 63.958-143.002 0-105.96-85.912-191.876-191.876-191.876z" fill="#ED5564" p-id="12801"></path>
  <path d="M448.042 682.546c-11.774 0-21.314 9.526-21.314 21.33h42.628c0-11.804-9.542-21.33-21.314-21.33zM490.686 682.546c-11.774 0-21.33 9.526-21.33 21.33H512c0-11.804-9.54-21.33-21.314-21.33z" fill="#DA4453" p-id="12802"></path>
  <path d="M533.314 682.546c-11.774 0-21.314 9.526-21.314 21.33h42.66c0-11.804-9.554-21.33-21.346-21.33zM575.958 682.546c-11.774 0-21.298 9.526-21.298 21.33h42.598c0-11.804-9.524-21.33-21.3-21.33zM639.918 703.846c0-11.774-9.554-21.298-21.298-21.298-11.804 0-21.362 9.526-21.362 21.33h42.66v-0.032zM405.396 682.546c-11.774 0-21.314 9.526-21.314 21.33h42.644c0-11.804-9.556-21.33-21.33-21.33z" fill="#DA4453" p-id="12803"></path>
  <path d="M469.356 469.34c0 11.804-9.542 21.33-21.314 21.33s-21.314-9.526-21.314-21.33c0-11.742 9.542-21.298 21.314-21.298s21.314 9.556 21.314 21.298zM597.258 469.34c0 11.804-9.524 21.33-21.298 21.33s-21.298-9.526-21.298-21.33c0-11.742 9.526-21.298 21.298-21.298 11.774 0 21.298 9.556 21.298 21.298zM522.664 575.958c0 11.742-9.554 21.298-21.33 21.298-11.774 0-21.314-9.556-21.314-21.298 0-11.804 9.542-21.33 21.314-21.33a21.318 21.318 0 0 1 21.33 21.33z" fill="#434A54" p-id="12804"></path>
  <path d="M543.98 575.958c0 11.742-9.542 21.298-21.316 21.298-11.772 0-21.33-9.556-21.33-21.298 0-11.804 9.556-21.33 21.33-21.33a21.306 21.306 0 0 1 21.316 21.33z" fill="#434A54" p-id="12805"></path>
</svg>