<?xml version="1.0" standalone="no"?>
<!DOCTYPE svg PUBLIC "-//W3C//DTD SVG 1.1//EN" "http://www.w3.org/Graphics/SVG/1.1/DTD/svg11.dtd">
<svg t="1585040610193" class="icon" viewBox="0 0 1024 1024" version="1.1"
  xmlns="http://www.w3.org/2000/svg" p-id="4219"
  xmlns:xlink="http://www.w3.org/1999/xlink" width="200" height="200">
  <path d="M139.661795 93.098382c-25.742144 0-46.563413 20.82127-46.563413 46.534969v651.631787c0 25.713699 20.82127 46.534969 46.534969 46.534969h176.355017c45.937637 0 90.851278 13.624847 129.080494 39.110991L511.998436 921.511851l66.929573-44.600753a232.731733 232.731733 0 0 1 129.023606-39.110991h176.411905c25.713699 0 46.534969-20.82127 46.534969-46.534969V139.633351c0-25.713699-20.82127-46.534969-46.534969-46.534969h-176.355017c-19.342163 0-48.753629 8.362641-73.557108 22.812375-12.003519 6.968868-20.650604 14.079957-25.770588 19.996383a26.168809 26.168809 0 0 0-3.726211 5.262206v556.99741a46.534969 46.534969 0 0 1-93.098382 0V139.661795c0-26.993695 12.942183-49.066517 26.396364-64.597135a194.929182 194.929182 0 0 1 49.493182-39.651435C623.016763 14.904843 668.442402 0 707.980059 0h176.355017A139.661795 139.661795 0 0 1 1023.996871 139.661795v651.603343a139.661795 139.661795 0 0 1-139.661795 139.661795h-176.355017a139.661795 139.661795 0 0 0-77.425541 23.438151l-92.728606 61.809589a46.534969 46.534969 0 0 1-51.654953 0l-92.728606-61.809589a139.661795 139.661795 0 0 0-77.453985-23.466595h-176.355017A139.661795 139.661795 0 0 1 0 791.265138V139.633351A139.661795 139.661795 0 0 1 139.661795 0h176.355017c45.909193 0 90.822834 13.624847 129.05205 39.110992a46.534969 46.534969 0 0 1-51.626509 77.425541 139.661795 139.661795 0 0 0-77.453985-23.438151h-176.355017z" fill="#000000" p-id="4220"></path>
  <path d="M170.666145 360.304677C170.666145 334.135868 191.032305 312.887933 216.177117 312.887933h136.532916c25.144812 0 45.510972 21.219491 45.510972 47.416744 0 26.168809-20.36616 47.3883-45.510972 47.388299H216.177117c-25.144812 0-45.510972-21.219491-45.510972-47.388299z m45.510972 189.610087c0-12.572406 4.807096-24.632814 13.340404-33.507453 8.533307-8.903084 20.110161-13.880846 32.170568-13.880846h91.021944c25.144812 0 45.510972 21.219491 45.510972 47.388299 0 26.168809-20.36616 47.416744-45.510972 47.416744H261.688089c-25.144812 0-45.510972-21.219491-45.510972-47.416744z" fill="#000000" p-id="4221"></path>
</svg>