<?xml version="1.0" standalone="no"?>
<!DOCTYPE svg PUBLIC "-//W3C//DTD SVG 1.1//EN" "http://www.w3.org/Graphics/SVG/1.1/DTD/svg11.dtd">
<svg t="1585040721838" class="icon" viewBox="0 0 1024 1024" version="1.1"
  xmlns="http://www.w3.org/2000/svg" p-id="4480"
  xmlns:xlink="http://www.w3.org/1999/xlink" width="200" height="200">
  <path d="M424.760889 122.737778c-83.143111 0-164.977778 87.125333-164.977778 212.167111 0 23.381333 10.097778 50.432 27.733333 80.128 14.449778 24.376889 31.374222 46.506667 47.075556 66.958222l9.898667 13.084445c14.620444 19.2 25.827556 42.325333 25.116444 68.551111-0.682667 27.306667-13.994667 48.583111-29.354667 63.914666-10.666667 10.638222-24.234667 19.143111-36.778666 26.168889-12.714667 7.196444-28.330667 14.990222-45.340445 23.466667l-0.853333 0.483555c-35.157333 17.578667-80.924444 40.448-138.24 74.865778-18.005333 10.837333-24.234667 27.192889-24.234667 77.397334 0 11.605333 4.266667 20.650667 17.692445 30.321777 15.303111 11.093333 40.334222 20.707556 75.178666 27.676445 69.290667 13.937778 158.606222 14.193778 236.202667 12.743111l21.959111-0.398222c68.920889-1.166222 142.08-2.389333 200.561778-14.421334 32.341333-6.599111 54.954667-15.616 68.579556-25.884444 11.52-8.618667 16.128-17.351111 16.184888-30.264889a148.195556 148.195556 0 0 0-9.244444-48.184889c-6.599111-18.090667-14.392889-28.245333-19.057778-31.715555-43.178667-32.426667-86.812444-54.357333-124.046222-71.537778-6.456889-3.015111-13.084444-5.973333-19.655111-8.96-10.382222-4.608-20.679111-9.386667-30.919111-14.279111-13.112889-6.4-30.321778-15.274667-42.524445-27.477334-15.36-15.36-28.672-36.579556-29.354666-63.886222-0.711111-26.254222 10.524444-49.379556 25.059555-68.608l9.955556-12.999111c15.701333-20.508444 32.625778-42.638222 47.075555-66.958222 17.635556-29.752889 27.733333-56.803556 27.733334-80.213334 0-63.544889-15.985778-118.414222-41.813334-155.932444-25.031111-36.494222-58.595556-56.206222-99.612444-56.206222zM165.518222 334.904889C165.518222 177.038222 272.184889 28.444444 424.760889 28.444444c76.828444 0 137.557333 39.224889 177.294222 97.024C641.109333 182.243556 660.451556 257.024 660.451556 334.904889c0 48.327111-19.996444 92.956444-40.903112 128.284444-17.607111 29.696-38.684444 57.031111-54.357333 77.539556l-8.533333 11.178667c-1.991111 2.503111-3.697778 5.176889-5.176889 8.021333l1.080889 1.024c1.024 0.711111 5.404444 3.697778 16.952889 9.244444 7.879111 3.868444 16.469333 7.736889 26.510222 12.259556l22.328889 10.183111c39.367111 18.204444 90.026667 43.377778 141.084444 81.720889 25.685333 19.285333 41.614222 49.123556 51.000889 74.723555 9.699556 26.595556 15.075556 55.921778 14.990222 81.066667-0.227556 46.023111-21.788444 81.152-53.816889 105.244445-29.980444 22.471111-68.465778 35.072-106.268444 42.808888-67.726222 13.937778-150.215111 15.274667-217.372444 16.355556l-22.272 0.398222c-76.686222 1.422222-175.786667 1.706667-256.597334-14.592-40.163556-8.049778-80.469333-21.105778-111.701333-43.633778C24.120889 912.782222 0.540444 877.283556 0.540444 829.923556c0-48.924444 3.072-118.101333 70.058667-158.264889 60.416-36.295111 108.885333-60.529778 144.355556-78.250667l0.199111-0.113778a1089.706667 1089.706667 0 0 0 42.126222-21.76c11.093333-6.257778 15.189333-9.528889 16.327111-10.666666l0.881778-0.938667a50.460444 50.460444 0 0 0-5.176889-8.021333l-8.533333-11.178667c-15.729778-20.48-36.750222-47.843556-54.328889-77.539556-20.935111-35.328-40.931556-79.957333-40.931556-128.284444z" fill="#000000" p-id="4481"></path>
  <path d="M655.957333 123.733333c2.816-12.231111 10.24-22.897778 20.679111-29.525333a45.226667 45.226667 0 0 1 34.929778-5.888c48.526222 11.633778 93.013333 35.726222 125.240889 75.804444 32.483556 40.391111 49.265778 92.956444 49.265778 155.192889 0 74.069333-18.403556 123.562667-56.433778 172.259556a19.399111 19.399111 0 0 0-2.446222 6.087111 52.906667 52.906667 0 0 0 0.170667 26.595556c6.656 6.087111 17.863111 15.018667 32.853333 26.936888l22.016 17.692445c26.368 21.219556 57.543111 47.217778 82.801778 73.159111 32.682667 33.564444 59.790222 92.216889 59.505777 155.818667-0.426667 79.559111-69.404444 139.093333-138.467555 139.093333a46.051556 46.051556 0 0 1-40.078222-23.779556 48.64 48.64 0 0 1 0-47.502222c8.277333-14.705778 23.552-23.751111 40.106666-23.751111 23.381333 0 45.795556-22.471111 45.909334-44.487111 0.199111-37.888-16.924444-72.334222-32.369778-88.206222-21.020444-21.589333-48.412444-44.515556-74.496-65.564445l-17.436445-13.966222c-18.488889-14.734222-36.124444-28.842667-45.880888-38.257778a91.278222 91.278222 0 0 1-22.670223-38.570666c-3.896889-12.8-5.973333-26.168889-6.115555-39.594667-0.369778-24.888889 5.262222-56.661333 24.433778-81.180444 24.519111-31.345778 36.067556-59.761778 36.067555-112.782223 0-44.202667-11.662222-74.24-28.074667-94.663111-16.64-20.707556-41.642667-35.811556-74.951111-43.832889-11.946667-2.844444-22.300444-10.496-28.785777-21.191111-6.456889-10.695111-8.533333-23.608889-5.774223-35.868444z m172.999111 402.915556l-0.256-0.398222 0.284445 0.398222z" fill="#000000" p-id="4482"></path>
</svg>