<?xml version="1.0" standalone="no"?>
<!DOCTYPE svg PUBLIC "-//W3C//DTD SVG 1.1//EN" "http://www.w3.org/Graphics/SVG/1.1/DTD/svg11.dtd">
<svg t="1584869696419" class="icon" viewBox="0 0 1024 1024" version="1.1"
  xmlns="http://www.w3.org/2000/svg" p-id="6778"
  xmlns:xlink="http://www.w3.org/1999/xlink" width="200" height="200">
  <path d="M834.844444 113.777778h-145.493333c-4.408889-13.653333-8.817778-22.755556-22.044444-36.408889C640.853333 40.96 596.764444 0 521.813333 0 446.862222 0 402.773333 40.96 376.32 77.368889c-4.408889 13.653333-8.817778 22.755556-13.226667 36.408889H217.6C142.648889 113.777778 85.333333 172.942222 85.333333 250.311111v637.155556C85.333333 964.835556 142.648889 1024 217.6 1024h617.244444c74.951111 0 132.266667-59.164444 132.266667-136.533333V250.311111C967.111111 172.942222 909.795556 113.777778 834.844444 113.777778z m0 819.2H217.6c-26.453333 0-44.088889-18.204444-44.088889-45.511111V250.311111c0-27.306667 17.635556-45.511111 44.088889-45.511111h176.355556c22.044444 0 39.68-13.653333 44.088888-36.408889 0 0 8.817778-31.857778 17.635556-40.96 13.226667-18.204444 35.271111-36.408889 70.542222-36.408889s57.315556 18.204444 70.542222 36.408889c8.817778 9.102222 17.635556 40.96 17.635556 40.96 4.408889 22.755556 22.044444 36.408889 44.088889 36.408889h176.355555c26.453333 0 44.088889 18.204444 44.088889 45.511111v637.155556c0 27.306667-17.635556 45.511111-44.088889 45.511111z" fill="#000000" p-id="6779"></path>
  <path d="M526.222222 530.972444h-225.194666c-27.022222 0-45.027556-18.033778-45.027556-45.056 0-27.022222 18.005333-45.027556 45.027556-45.027555H526.222222c27.022222 0 45.027556 18.005333 45.027556 45.027555s-18.005333 45.056-45.027556 45.056zM751.416889 711.111111H301.027556C274.005333 711.111111 256 693.105778 256 666.083556s18.005333-45.056 45.027556-45.056h450.389333c27.022222 0 45.027556 18.033778 45.027555 45.056 0 27.022222-18.005333 45.027556-45.027555 45.027555zM526.222222 283.249778c-27.022222 0-45.027556-18.005333-45.027555-45.027556v-22.528c0-27.022222 18.005333-45.027556 45.027555-45.027555s45.027556 18.005333 45.027556 45.027555v22.528c0 27.022222-18.005333 45.027556-45.027556 45.027556z" fill="#000000" p-id="6780"></path>
</svg>