<?xml version="1.0" standalone="no"?>
<!DOCTYPE svg PUBLIC "-//W3C//DTD SVG 1.1//EN" "http://www.w3.org/Graphics/SVG/1.1/DTD/svg11.dtd">
<svg t="1587913711204" class="icon" viewBox="0 0 1024 1024" version="1.1"
  xmlns="http://www.w3.org/2000/svg" p-id="4084"
  xmlns:xlink="http://www.w3.org/1999/xlink" width="200" height="200">
  <path d="M512 0c282.76736 0 512 229.23264 512 512s-229.23264 512-512 512S0 794.76736 0 512 229.23264 0 512 0z" fill="#324D5B" p-id="4085"></path>
  <path d="M917.97504 823.82848C797.10208 801.21856 661.07392 788.48 517.12 788.48c-147.5072 0-286.64832 13.42464-409.7024 37.10976C201.08288 946.25792 347.42272 1024 512 1024c165.38624 0 312.36096-78.4896 405.97504-200.17152z" fill="#51BBA8" p-id="4086"></path>
  <path d="M512 256c152.69888 0 276.48 105.45152 276.48 235.52 0 130.07872-123.78112 235.52-276.48 235.52S235.52 621.59872 235.52 491.52c0-130.06848 123.78112-235.52 276.48-235.52z" fill="#E2574C" p-id="4087"></path>
  <path d="M621.13792 417.25952a57.91744 57.91744 0 0 0 48.9984 26.86976c12.3904 0 24.91392-3.96288 35.54304-12.22656l55.25504-42.96704a223.56992 223.56992 0 0 0-8.15104-13.12768l-56.53504 43.97056a42.1888 42.1888 0 0 1-26.112 8.99072 42.51648 42.51648 0 0 1-36.0448-19.7632L537.37472 257.024a333.39392 333.39392 0 0 0-18.76992-0.89088l102.53312 161.1264z m-358.06208-28.33408l55.25504 42.97728a57.7024 57.7024 0 0 0 35.54304 12.22656 57.91744 57.91744 0 0 0 48.9984-26.86976l102.53312-161.11616c-6.30784 0.13312-12.57472 0.4096-18.76992 0.89088l-96.7168 151.98208a42.496 42.496 0 0 1-36.03456 19.75296 42.1888 42.1888 0 0 1-26.112-8.99072L271.21664 375.808c-2.84672 4.3008-5.60128 8.66304-8.1408 13.11744z" fill="#D0564E" p-id="4088"></path>
  <path d="M512 788.48c175.31904 0 317.44 13.76256 317.44 30.72s-142.12096 30.72-317.44 30.72c-175.31904 0-317.44-13.76256-317.44-30.72s142.12096-30.72 317.44-30.72z" fill="#419686" p-id="4089"></path>
  <path d="M705.67936 431.90272a57.99936 57.99936 0 0 1-84.54144-14.6432L512 245.76 402.86208 417.25952a57.99936 57.99936 0 0 1-84.54144 14.6432L184.32 327.68l5.61152 33.64864C213.4528 502.49728 225.28 624.87552 225.28 768h573.44c0-143.12448 11.81696-265.50272 35.34848-406.67136L839.68 327.68 705.67936 431.90272z" fill="#F6C37A" p-id="4090"></path>
  <path d="M404.02944 415.42656L435.42528 614.4h162.05824l35.00032-184.15616a58.112 58.112 0 0 1-11.33568-12.98432L518.52288 256h-13.03552l-101.45792 159.42656z" fill="#F8CF95" p-id="4091"></path>
  <path d="M828.0576 399.21664c1.93536-12.544 3.87072-25.06752 6.01088-37.888L839.68 327.68l-50.31936 39.13728a40.88832 40.88832 0 0 0 38.69696 32.39936zM184.32 327.68l5.61152 33.64864c2.14016 12.82048 4.06528 25.344 6.01088 37.888a40.9088 40.9088 0 0 0 38.69696-32.4096L184.32 327.68z" fill="#E8B873" p-id="4092"></path>
  <path d="M485.67296 287.13984c7.12704 6.03136 16.25088 9.82016 26.32704 9.82016s19.18976-3.7888 26.32704-9.82016L512 245.76l-26.32704 41.37984z" fill="#EAC48D" p-id="4093"></path>
  <path d="M805.24288 593.92H218.75712c0.768 10.19904 1.50528 20.44928 2.14016 30.72h582.1952c0.63488-10.27072 1.3824-20.52096 2.1504-30.72z" fill="#DDAF6E" p-id="4094"></path>
  <path d="M512 194.56a40.96 40.96 0 1 0 0 81.92 40.96 40.96 0 0 0 0-81.92zM194.56 296.96a40.96 40.96 0 1 0 0 81.92 40.96 40.96 0 0 0 0-81.92z m634.88 0a40.96 40.96 0 1 0 0 81.92 40.96 40.96 0 0 0 0-81.92z" fill="#F8CF95" p-id="4095"></path>
  <path d="M225.28 747.52h573.44v20.48H225.28v-20.48z" fill="#D4654F" p-id="4096"></path>
  <path d="M312.32 665.6a25.6 25.6 0 1 0 0 51.2 25.6 25.6 0 0 0 0-51.2z m102.4 0a25.6 25.6 0 1 0 0 51.2 25.6 25.6 0 0 0 0-51.2z m307.2 0a25.6 25.6 0 1 0 0 51.2 25.6 25.6 0 0 0 0-51.2z m-102.4 0a25.6 25.6 0 1 0 0 51.2 25.6 25.6 0 0 0 0-51.2z m-102.4 0a25.6 25.6 0 1 0 0 51.2 25.6 25.6 0 0 0 0-51.2z" fill="#F2F1EF" p-id="4097"></path>
  <path d="M522.24 430.08a40.96 40.96 0 1 1 0 81.92 40.96 40.96 0 0 1 0-81.92z" fill="#2EA9D3" p-id="4098"></path>
  <path d="M808.96 768H215.04a20.48 20.48 0 0 0 0 40.96h593.92a20.48 20.48 0 0 0 0-40.96zM215.04 614.4h593.92a20.48 20.48 0 0 0 0-40.96H215.04a20.48 20.48 0 0 0 0 40.96z" fill="#FBE1BD" p-id="4099"></path>
  <path d="M322.56 706.56a25.6 25.6 0 0 1-25.6-25.6c0-4.43392 1.2288-8.52992 3.19488-12.16512A25.50784 25.50784 0 0 0 312.32 716.8a25.4976 25.4976 0 0 0 22.40512-13.43488A25.36448 25.36448 0 0 1 322.56 706.56z m102.4 0a25.6 25.6 0 0 1-25.6-25.6c0-4.43392 1.2288-8.52992 3.19488-12.16512A25.50784 25.50784 0 0 0 414.72 716.8a25.4976 25.4976 0 0 0 22.40512-13.43488A25.36448 25.36448 0 0 1 424.96 706.56z m307.2 0a25.6 25.6 0 0 1-25.6-25.6c0-4.43392 1.21856-8.52992 3.19488-12.16512A25.50784 25.50784 0 0 0 721.92 716.8c9.70752 0 18.06336-5.46816 22.40512-13.43488A25.33376 25.33376 0 0 1 732.16 706.56z m-204.8 0a25.6 25.6 0 0 1-25.6-25.6c0-4.43392 1.2288-8.52992 3.19488-12.16512A25.50784 25.50784 0 0 0 517.12 716.8c9.70752 0 18.06336-5.46816 22.40512-13.43488A25.33376 25.33376 0 0 1 527.36 706.56z m102.4 0a25.6 25.6 0 0 1-25.6-25.6c0-4.43392 1.21856-8.52992 3.19488-12.16512A25.50784 25.50784 0 0 0 619.52 716.8c9.70752 0 18.06336-5.46816 22.40512-13.43488A25.33376 25.33376 0 0 1 629.76 706.56z" fill="#D6B98F" p-id="4100"></path>
  <path d="M532.48 501.76a40.96 40.96 0 0 1-40.96-40.96c0-8.69376 2.75456-16.72192 7.3728-23.3472A40.83712 40.83712 0 0 0 481.28 471.04a40.96 40.96 0 0 0 40.96 40.96c13.9264 0 26.19392-6.98368 33.5872-17.6128A40.68352 40.68352 0 0 1 532.48 501.76z" fill="#3293B2" p-id="4101"></path>
</svg>