<?xml version="1.0" standalone="no"?>
<!DOCTYPE svg PUBLIC "-//W3C//DTD SVG 1.1//EN" "http://www.w3.org/Graphics/SVG/1.1/DTD/svg11.dtd">
<svg t="1587912080786" class="icon" viewBox="0 0 1024 1024" version="1.1"
  xmlns="http://www.w3.org/2000/svg" p-id="4009"
  xmlns:xlink="http://www.w3.org/1999/xlink" width="200" height="200">
  <path d="M512.013517 0C229.246157 0 0.013517 229.23264 0.013517 512s229.23264 512 512 512 512-229.23264 512-512S794.780877 0 512.013517 0z m0 675.84c-90.48064 0-163.84-73.34912-163.84-163.84 0-90.48064 73.35936-163.84 163.84-163.84s163.84 73.35936 163.84 163.84c0 90.49088-73.35936 163.84-163.84 163.84z" fill="#E89C25" p-id="4010"></path>
  <path d="M512.013517 0C229.246157 0 0.013517 229.23264 0.013517 512c0 33.62816 3.33824 66.46784 9.53344 98.29376C43.113677 625.54112 80.274637 638.76096 112.653517 686.08c71.64928 104.72448 161.37216-28.55936 163.84-102.4 1.71008-51.2512 45.40416-70.78912 71.99744-77.96736C351.818957 418.16064 423.652557 348.16 512.013517 348.16c90.48064 0 163.84 73.35936 163.84 163.84 0 19.82464-3.69664 38.71744-10.1376 56.30976 32.79872 10.0352 67.19488-12.53376 71.5776-35.82976 8.2944-44.1344 44.77952-80.09728 143.36 61.44 65.6384 94.24896 116.50048-8.91904 143.14496-73.728L1024.013517 512c0-282.76736-229.23264-512-512-512z" fill="#F8BEB6" p-id="4011"></path>
  <path d="M512.115917 776.16128c-70.1952 0-140.42112-35.62496-184.25856-90.08128 34.43712 71.15776 103.99744 122.92096 184.25856 122.92096 80.2816 0 149.84192-51.7632 184.2688-122.92096-43.83744 54.44608-114.05312 90.08128-184.2688 90.08128z" fill="#EBAB45" p-id="4012"></path>
  <path d="M511.870157 99.30752c127.83616 0 255.744 60.95872 337.9712 154.90048C783.568077 137.89184 657.093837 59.21792 511.870157 59.21792c-145.21344 0-271.68768 78.67392-337.96096 194.99008 82.23744-93.94176 210.1248-154.90048 337.96096-154.90048z" fill="#FACEC8" p-id="4013"></path>
  <path d="M181.589197 563.06688c-5.632-9.5744-18.11456-12.84096-27.87328-7.3216s-13.09696 17.74592-7.46496 27.31008l30.60736 51.94752c5.632 9.56416 18.11456 12.84096 27.87328 7.3216s13.1072-17.74592 7.46496-27.31008l-30.60736-51.94752zM419.208397 54.60992c-2.69312-9.85088-13.0048-15.69792-23.04-13.056l-54.51776 14.34624c-10.0352 2.64192-15.99488 12.76928-13.30176 22.62016 2.69312 9.85088 13.0048 15.69792 23.04 13.056l54.51776-14.336a18.45248 18.45248 0 0 0 13.30176-22.6304z" fill="#E4776E" p-id="4014"></path>
  <path d="M341.660877 205.37344l-60.25216 16.06656c-11.08992 2.95936-17.43872 15.2576-14.16192 27.48416 3.26656 12.21632 14.91968 19.72224 26.0096 16.76288l60.25216-16.06656c11.08992-2.95936 17.43872-15.26784 14.16192-27.47392-3.2768-12.22656-14.91968-19.72224-26.0096-16.77312z m446.6688 81.26464a20.46976 20.46976 0 0 0-20.3776-20.52096 20.41856 20.41856 0 0 0-20.33664 20.5312l0.07168 61.5936a20.45952 20.45952 0 0 0 20.3776 20.52096 20.40832 20.40832 0 0 0 20.3264-20.5312l-0.06144-61.5936z" fill="#51B8DA" p-id="4015"></path>
  <path d="M972.035277 444.70272l-17.18272-60.52864c-3.16416-11.14112-15.27808-17.75616-27.07456-14.76608-11.78624 2.99008-18.7904 14.4384-15.62624 25.57952l17.16224 60.53888c3.16416 11.14112 15.27808 17.74592 27.0848 14.76608 11.79648-2.99008 18.7904-14.4384 15.63648-25.58976zM117.722317 189.73696c-10.45504-6.23616-23.5008-3.08224-29.15328 7.03488l-30.65856 54.9376c-5.64224 10.11712-1.75104 23.36768 8.704 29.5936 10.45504 6.22592 23.5008 3.072 29.14304-7.03488l30.6688-54.94784c5.64224-10.10688 1.75104-23.35744-8.704-29.58336z m486.8096-2.59072l-51.93728 30.32064c-9.5744 5.5808-12.75904 18.11456-7.1168 27.97568 5.64224 9.87136 17.96096 13.35296 27.52512 7.77216l51.93728-30.32064c9.56416-5.5808 12.7488-18.11456 7.1168-27.97568-5.64224-9.8816-17.96096-13.35296-27.52512-7.77216z" fill="#75C9BA" p-id="4016"></path>
  <path d="M163.761357 361.18528c-9.75872-5.51936-22.23104-2.24256-27.87328 7.3216L105.280717 420.4544a19.78368 19.78368 0 0 0 7.46496 27.32032c9.75872 5.51936 22.24128 2.24256 27.87328-7.3216l30.60736-51.95776a19.7632 19.7632 0 0 0-7.46496-27.31008z m604.54912-235.53024l-52.1216-30.72a19.84512 19.84512 0 0 0-27.41248 7.49568c-5.53984 9.78944-2.2528 22.3232 7.35232 27.96544l52.1216 30.72a19.83488 19.83488 0 0 0 27.40224-7.49568c5.53984-9.7792 2.26304-22.30272-7.34208-27.96544z" fill="#F4F4F4" p-id="4017"></path>
  <path d="M512.013517 286.72c-113.11104 0-204.8 91.68896-204.8 204.8s91.68896 204.8 204.8 204.8 204.8-91.68896 204.8-204.8-91.68896-204.8-204.8-204.8z m0 389.12c-90.48064 0-163.84-73.34912-163.84-163.84 0-90.48064 73.35936-163.84 163.84-163.84s163.84 73.35936 163.84 163.84c0 90.49088-73.35936 163.84-163.84 163.84z" fill="#D08C21" p-id="4018"></path>
  <path d="M512.013517 969.53344c-273.63328 0-497.1008-214.66112-511.26272-484.7616C0.269517 493.78304 0.013517 502.85568 0.013517 512c0 282.76736 229.23264 512 512 512s512-229.23264 512-512c0-9.14432-0.256-18.21696-0.72704-27.2384C1009.124557 754.87232 785.646797 969.53344 512.013517 969.53344z" fill="#D69022" p-id="4019"></path>
  <path d="M624.929997 212.66432l-51.93728 30.32064c-9.56416 5.5808-21.88288 2.10944-27.52512-7.77216a20.45952 20.45952 0 0 1-2.08896-5.49888 20.9408 20.9408 0 0 0 2.08896 15.73888c5.64224 9.87136 17.96096 13.35296 27.52512 7.77216l51.93728-30.32064c7.86432-4.58752 11.30496-13.85472 9.20576-22.48704a19.88608 19.88608 0 0 1-9.20576 12.24704z m-498.50368-3.584L95.757517 264.02816c-5.64224 10.10688-18.688 13.2608-29.14304 7.03488a23.07072 23.07072 0 0 1-10.58816-14.37696c-2.29376 9.14432 1.78176 19.36384 10.58816 24.61696 10.45504 6.22592 23.5008 3.072 29.14304-7.03488l30.6688-54.94784c2.64192-4.73088 3.1232-10.14784 1.88416-15.21664a19.97824 19.97824 0 0 1-1.88416 4.97664z m829.96224 250.97216c-11.79648 2.97984-23.92064-3.62496-27.0848-14.76608l-17.16224-60.53888-0.02048-0.12288a19.5584 19.5584 0 0 0 0.02048 10.36288l17.16224 60.53888c3.16416 11.14112 15.27808 17.74592 27.0848 14.76608 11.75552-2.97984 18.7392-14.35648 15.65696-25.46688a21.38112 21.38112 0 0 1-15.65696 15.22688z" fill="#64AB9E" p-id="4020"></path>
  <path d="M353.508557 239.37024l-60.25216 16.06656c-11.08992 2.95936-22.74304-4.54656-26.0096-16.76288l-0.22528-1.31072c-0.79872 3.65568-0.83968 7.58784 0.22528 11.55072 3.26656 12.21632 14.91968 19.72224 26.0096 16.76288l60.25216-16.06656c10.7008-2.84672 16.88576-14.39744 14.3872-26.1632-1.65888 7.6288-6.89152 13.93664-14.3872 15.9232z m414.55616 119.15264a20.45952 20.45952 0 0 1-20.3776-20.52096l-0.06144-51.46624-0.01024 0.11264 0.07168 61.5936a20.45952 20.45952 0 0 0 20.3776 20.52096 20.40832 20.40832 0 0 0 20.3264-20.5312l-0.01024-10.1376a20.38784 20.38784 0 0 1-20.31616 20.4288z" fill="#459DBA" p-id="4021"></path>
  <path d="M775.652557 143.40096a19.83488 19.83488 0 0 1-27.40224 7.49568l-52.1216-30.72a20.35712 20.35712 0 0 1-9.34912-12.4416c-2.11968 8.64256 1.41312 18.01216 9.34912 22.6816l52.1216 30.72a19.83488 19.83488 0 0 0 27.40224-7.49568 20.81792 20.81792 0 0 0 2.00704-15.54432 20.76672 20.76672 0 0 1-2.00704 5.30432zM171.236557 378.2656l-30.60736 51.95776c-5.632 9.56416-18.11456 12.84096-27.87328 7.3216a19.94752 19.94752 0 0 1-9.472-12.05248 19.7632 19.7632 0 0 0 9.472 22.29248c9.75872 5.51936 22.24128 2.24256 27.87328-7.3216l30.60736-51.95776c2.83648-4.8128 3.38944-10.2912 2.00704-15.26784a20.0704 20.0704 0 0 1-2.00704 5.02784z" fill="#D3D3D3" p-id="4022"></path>
  <path d="M204.721357 632.09472c-9.75872 5.51936-22.23104 2.24256-27.87328-7.3216L146.240717 572.8256a19.41504 19.41504 0 0 1-2.00704-5.0176 19.5584 19.5584 0 0 0 2.00704 15.2576l30.60736 51.94752c5.632 9.56416 18.11456 12.84096 27.87328 7.3216a19.75296 19.75296 0 0 0 9.472-22.29248 19.97824 19.97824 0 0 1-9.472 12.05248zM419.054797 54.2208a18.57536 18.57536 0 0 1-13.14816 12.77952l-54.51776 14.336c-9.89184 2.60096-20.02944-3.072-22.8864-12.66688a18.05312 18.05312 0 0 0-0.1536 9.85088c2.69312 9.85088 13.0048 15.69792 23.04 13.056l54.51776-14.336c10.0352-2.64192 15.99488-12.76928 13.30176-22.6304l-0.1536-0.38912z" fill="#C5675F" p-id="4023"></path>
  <path d="M1023.286477 484.79232a513.46432 513.46432 0 0 1-4.84352 48.13824c1.88416-4.36224 3.66592-8.63232 5.35552-12.73856L1024.013517 512c0-9.1136-0.256-18.16576-0.72704-27.15648v-0.0512zM2.215117 558.61248l0.256 3.36896c1.60768 16.34304 3.98336 32.45056 7.0656 48.31232l16.13824 7.2192A509.98272 509.98272 0 0 1 0.750797 484.7616a510.976 510.976 0 0 0-0.1024 52.62336c0.36864 7.1168 0.9216 14.1824 1.56672 21.22752zM512.013517 286.72c-113.11104 0-204.8 91.68896-204.8 204.8 0 10.76224 1.0752 21.23776 2.67264 31.54944 12.94336-8.99072 27.31008-14.30528 38.6048-17.3568C351.818957 418.16064 423.652557 348.16 512.013517 348.16c90.48064 0 163.84 73.35936 163.84 163.84 0 19.82464-3.69664 38.71744-10.1376 56.30976 12.50304 3.81952 25.22112 2.88768 36.44416-0.99328A204.288 204.288 0 0 0 716.813517 491.52c0-113.11104-91.68896-204.8-204.8-204.8z" fill="#DFABA3" p-id="4024"></path>
  <path d="M348.490957 505.71264C321.897677 512.89088 278.203597 532.4288 276.493517 583.68c-2.46784 73.84064-92.19072 207.12448-163.84 102.4-32.37888-47.31904-69.53984-60.53888-103.10656-75.78624l2.21184 11.07968C45.325517 636.6208 80.274637 649.00096 112.653517 696.32c71.64928 104.72448 161.37216-28.55936 163.84-102.4 1.71008-51.2512 44.98432-70.8096 71.5776-77.98784l0.41984-10.21952zM1023.798477 520.192C997.153997 585.00096 946.291917 688.16896 880.653517 593.92c-98.58048-141.53728-135.0656-105.5744-143.36-61.44-4.23936 22.5792-39.76192 44.20608-71.61856 36.41344-0.96256 3.19488-2.70336 6.32832-3.84 9.44128 32.79872 10.02496 71.07584-12.31872 75.45856-35.61472 8.2944-44.1344 44.77952-80.09728 143.36 61.44 65.6384 94.24896 116.50048-8.91904 143.14496-73.728L1024.013517 522.24l-0.13312-5.16096-0.08192 3.11296z" fill="#D69022" p-id="4025"></path>
  <path d="M348.173517 512l0.31744-6.28736c-11.30496 3.05152-25.66144 8.36608-38.6048 17.3568 0.47104 3.04128 0.78848 6.13376 1.39264 9.12384 12.41088-8.31488 25.96864-13.34272 36.79232-16.26112l0.13312-3.21536L348.173517 512zM29.596877 629.37088c-1.39264-3.91168-2.62144-7.89504-3.92192-11.85792L9.536717 610.29376l1.6384 8.20224 0.67584 2.9184 17.74592 7.95648z m636.07808-60.47744a49.79712 49.79712 0 0 1-2.31424 5.81632l-0.90112 2.11968-0.63488 1.49504c11.776 3.60448 24.24832 2.97984 35.62496-0.3072 1.81248-3.88096 3.5328-7.79264 5.09952-11.78624-11.4688 4.22912-24.43264 5.70368-36.87424 2.6624z m358.20544-51.8144l-0.08192 3.11296c-1.6896 4.10624-3.4816 8.37632-5.35552 12.73856-0.82944 5.632-1.85344 11.20256-2.8672 16.77312 2.84672-6.4 5.49888-12.65664 7.95648-18.60608 0.17408-4.64896 0.29696-9.29792 0.34816-13.9776v-0.04096z" fill="#BB7E1E" p-id="4026"></path>
</svg>