<?xml version="1.0" standalone="no"?>
<!DOCTYPE svg PUBLIC "-//W3C//DTD SVG 1.1//EN" "http://www.w3.org/Graphics/SVG/1.1/DTD/svg11.dtd">
<svg t="1585996191563" class="icon" viewBox="0 0 1024 1024" version="1.1"
  xmlns="http://www.w3.org/2000/svg" p-id="4107"
  xmlns:xlink="http://www.w3.org/1999/xlink" width="200" height="200">
  <path d="M46.535111 580.949333c12.344889 0 24.177778 4.892444 32.910222 13.568 8.732444 8.647111 13.653333 20.423111 13.653334 32.711111v201.159112c0 25.543111 20.821333 46.250667 46.535111 46.250666h744.732444c25.713778 0 46.535111-20.707556 46.535111-46.250666V627.2c0-16.497778 8.874667-31.772444 23.267556-40.049778 14.421333-8.248889 32.142222-8.248889 46.563555 0 14.392889 8.248889 23.267556 23.523556 23.267556 40.049778v201.187556C1024 905.016889 961.479111 967.111111 884.337778 967.111111H139.662222C62.492444 967.111111 0 905.016889 0 828.387556V627.2c0-25.543111 20.849778-46.250667 46.535111-46.250667z" fill="#000000" p-id="4108"></path>
  <path d="M327.111111 102.855111A46.08 46.08 0 0 1 373.276444 56.888889h277.333334A46.08 46.08 0 0 1 696.888889 102.855111v266.325333h138.666667c19.2 0 36.408889 11.776 43.235555 29.639112a45.795556 45.795556 0 0 1-12.515555 50.716444L542.634667 734.862222a46.421333 46.421333 0 0 1-61.326223 0L157.781333 449.536a45.795556 45.795556 0 0 1-12.544-50.688 46.222222 46.222222 0 0 1 43.178667-29.667556h138.666667V102.855111z m92.444445 45.966222v266.325334a46.08 46.08 0 0 1-46.250667 45.966222h-63.089778l201.756445 177.92 201.756444-177.92h-63.089778a46.08 46.08 0 0 1-46.222222-45.966222V148.821333h-184.888889z" fill="#000000" p-id="4109"></path>
</svg>