<?xml version="1.0" standalone="no"?>
<!DOCTYPE svg PUBLIC "-//W3C//DTD SVG 1.1//EN" "http://www.w3.org/Graphics/SVG/1.1/DTD/svg11.dtd">
<svg t="1586793908626" class="icon" viewBox="0 0 1024 1024" version="1.1"
  xmlns="http://www.w3.org/2000/svg" p-id="3928"
  xmlns:xlink="http://www.w3.org/1999/xlink" width="200" height="200">
  <path d="M512.002844 249.457778c189.155556 0 361.415111 183.751111 427.207112 262.542222-65.792 78.791111-238.051556 262.542222-427.207112 262.542222S150.587733 590.791111 84.795733 512C150.587733 433.208889 322.847289 249.457778 512.002844 249.457778zM512.002844 170.666667C277.279289 170.666667 78.395733 394.638222 11.323733 479.715556a51.683556 51.683556 0 0 0 0 64.568888C78.395733 629.361778 277.279289 853.333333 512.002844 853.333333s433.607111-223.971556 500.679112-309.048889a51.683556 51.683556 0 0 0 0-64.568888C945.609956 394.638222 746.7264 170.666667 512.002844 170.666667z m0 262.542222c42.410667 0 76.8 35.271111 76.8 78.791111s-34.389333 78.791111-76.8 78.791111-76.8-35.271111-76.8-78.791111 34.389333-78.791111 76.8-78.791111z m0-78.734222c-62.122667 0-118.129778 38.371556-141.880888 97.251555-23.779556 58.88-10.638222 126.606222 33.28 171.662222a150.755556 150.755556 0 0 0 167.367111 34.133334C628.169956 633.173333 665.602844 575.715556 665.602844 512c0-87.011556-68.750222-157.525333-153.571555-157.525333z" fill="#000000" p-id="3929"></path>
</svg>