<?xml version="1.0" standalone="no" ?>
<!DOCTYPE svg PUBLIC "-//W3C//DTD SVG 1.1//EN" "http://www.w3.org/Graphics/SVG/1.1/DTD/svg11.dtd">
<svg t="1584623787957" class="icon" viewBox="0 0 1024 1024" version="1.1" xmlns="http://www.w3.org/2000/svg" p-id="2461" xmlns:xlink="http://www.w3.org/1999/xlink" width="200" height="200">
  <path d="M600.868571 313.417143a109.714286 109.714286 0 0 0-77.531428 32.182857 109.714286 109.714286 0 0 0 0 155.062857 109.714286 109.714286 0 1 0 77.531428-187.245714z" fill="#FF928F" p-id="2462"></path>
  <path d="M512 0a512 512 0 1 0 512 512A512 512 0 0 0 512 0z m-15.36 759.954286a53.028571 53.028571 0 0 1-38.765714 16.091428 53.76 53.76 0 0 1-38.765715-16.091428l-38.765714-38.765715-64.731428 64.731429a54.491429 54.491429 0 0 1-38.765715 16.091429 55.222857 55.222857 0 0 1-38.765714-16.091429 54.491429 54.491429 0 0 1 0-77.531429l64.731429-64.731428-38.765715-38.765714a54.857143 54.857143 0 0 1 77.531429-77.531429l155.062857 155.062857a54.491429 54.491429 0 0 1 0 77.531429z m259.291429-182.857143a219.428571 219.428571 0 1 1 0-310.125714 217.6 217.6 0 0 1 0 311.222857z" fill="#FF928F" p-id="2463"></path>
</svg>