<?xml version="1.0" standalone="no"?>
<!DOCTYPE svg PUBLIC "-//W3C//DTD SVG 1.1//EN" "http://www.w3.org/Graphics/SVG/1.1/DTD/svg11.dtd">
<svg t="1587913419829" class="icon" viewBox="0 0 1024 1024" version="1.1"
  xmlns="http://www.w3.org/2000/svg" p-id="2738"
  xmlns:xlink="http://www.w3.org/1999/xlink" width="200" height="200">
  <path d="M512 0c282.76736 0 512 229.23264 512 512s-229.23264 512-512 512S0 794.76736 0 512 229.23264 0 512 0z" fill="#EFC75E" p-id="2739"></path>
  <path d="M798.72 163.84H624.64a30.72 30.72 0 0 0-30.72 30.72v51.2c0 56.55552-45.85472 102.4-102.4 102.4H327.68v10.24a20.48 20.48 0 0 1-20.48 20.48h-40.96a20.48 20.48 0 0 1-20.48-20.48v-10.24h-20.48a30.72 30.72 0 0 0-30.72 30.72v534.6816a514.6624 514.6624 0 0 0 51.47648 36.01408A20.41856 20.41856 0 0 1 266.24 931.84h30.72a20.48 20.48 0 0 1 20.48 20.48v20.48c0 4.23936-1.29024 8.18176-3.50208 11.44832C374.86592 1009.83808 441.78432 1024 512 1024s137.13408-14.16192 198.06208-39.75168A20.35712 20.35712 0 0 1 706.56 972.8v-20.48a20.48 20.48 0 0 1 20.48-20.48h30.72c10.37312 0 18.85184 7.74144 20.20352 17.72544A511.82592 511.82592 0 0 0 829.44 913.55136V194.56a30.72 30.72 0 0 0-30.72-30.72zM317.44 870.4a20.48 20.48 0 0 1-20.48 20.48h-30.72a20.48 20.48 0 0 1-20.48-20.48v-20.48a20.48 20.48 0 0 1 20.48-20.48h30.72a20.48 20.48 0 0 1 20.48 20.48v20.48z m0-102.4a20.48 20.48 0 0 1-20.48 20.48h-30.72a20.48 20.48 0 0 1-20.48-20.48v-20.48a20.48 20.48 0 0 1 20.48-20.48h30.72a20.48 20.48 0 0 1 20.48 20.48v20.48z m0-102.4a20.48 20.48 0 0 1-20.48 20.48h-30.72a20.48 20.48 0 0 1-20.48-20.48v-20.48a20.48 20.48 0 0 1 20.48-20.48h30.72a20.48 20.48 0 0 1 20.48 20.48v20.48z m0-102.4a20.48 20.48 0 0 1-20.48 20.48h-30.72a20.48 20.48 0 0 1-20.48-20.48v-20.48a20.48 20.48 0 0 1 20.48-20.48h30.72a20.48 20.48 0 0 1 20.48 20.48v20.48z m0-102.4a20.48 20.48 0 0 1-20.48 20.48h-30.72a20.48 20.48 0 0 1-20.48-20.48v-20.48a20.48 20.48 0 0 1 20.48-20.48h30.72a20.48 20.48 0 0 1 20.48 20.48v20.48z m460.8 409.6a20.48 20.48 0 0 1-20.48 20.48h-30.72a20.48 20.48 0 0 1-20.48-20.48v-20.48a20.48 20.48 0 0 1 20.48-20.48h30.72a20.48 20.48 0 0 1 20.48 20.48v20.48z m0-102.4a20.48 20.48 0 0 1-20.48 20.48h-30.72a20.48 20.48 0 0 1-20.48-20.48v-20.48a20.48 20.48 0 0 1 20.48-20.48h30.72a20.48 20.48 0 0 1 20.48 20.48v20.48z m0-102.4a20.48 20.48 0 0 1-20.48 20.48h-30.72a20.48 20.48 0 0 1-20.48-20.48v-20.48a20.48 20.48 0 0 1 20.48-20.48h30.72a20.48 20.48 0 0 1 20.48 20.48v20.48z m0-102.4a20.48 20.48 0 0 1-20.48 20.48h-30.72a20.48 20.48 0 0 1-20.48-20.48v-20.48a20.48 20.48 0 0 1 20.48-20.48h30.72a20.48 20.48 0 0 1 20.48 20.48v20.48z m0-102.4a20.48 20.48 0 0 1-20.48 20.48h-30.72a20.48 20.48 0 0 1-20.48-20.48v-20.48a20.48 20.48 0 0 1 20.48-20.48h30.72a20.48 20.48 0 0 1 20.48 20.48v20.48z m0-102.4a20.48 20.48 0 0 1-20.48 20.48h-30.72a20.48 20.48 0 0 1-20.48-20.48v-20.48a20.48 20.48 0 0 1 20.48-20.48h30.72a20.48 20.48 0 0 1 20.48 20.48v20.48z m0-102.4a20.48 20.48 0 0 1-20.48 20.48h-30.72a20.48 20.48 0 0 1-20.48-20.48v-20.48a20.48 20.48 0 0 1 20.48-20.48h30.72a20.48 20.48 0 0 1 20.48 20.48v20.48z" fill="#324D5B" p-id="2740"></path>
  <path d="M512 1024c49.77664 0 97.85344-7.23968 143.36-20.49024V901.12a20.48 20.48 0 0 0-20.48-20.48H389.12a20.48 20.48 0 0 0-20.48 20.48v102.38976A511.91808 511.91808 0 0 0 512 1024zM389.12 839.68h245.76a20.48 20.48 0 0 0 20.48-20.48V665.6a20.48 20.48 0 0 0-20.48-20.48H389.12a20.48 20.48 0 0 0-20.48 20.48v153.6a20.48 20.48 0 0 0 20.48 20.48z m245.76-430.08H389.12a20.48 20.48 0 0 0-20.48 20.48v153.6a20.48 20.48 0 0 0 20.48 20.48h245.76a20.48 20.48 0 0 0 20.48-20.48V430.08a20.48 20.48 0 0 0-20.48-20.48z" fill="#516873" p-id="2741"></path>
</svg>