<?xml version="1.0" standalone="no" ?>
<!DOCTYPE svg PUBLIC "-//W3C//DTD SVG 1.1//EN" "http://www.w3.org/Graphics/SVG/1.1/DTD/svg11.dtd">
<svg t="1584869718231" class="icon" viewBox="0 0 1024 1024" version="1.1" xmlns="http://www.w3.org/2000/svg" p-id="6909" xmlns:xlink="http://www.w3.org/1999/xlink" width="200" height="200">
  <path d="M378.481778 227.555556C217.201778 227.555556 85.333333 360.647111 85.333333 526.222222 85.333333 691.825778 217.258667 824.888889 378.481778 824.888889a12.145778 12.145778 0 0 0 11.52-8.334222l2.616889-7.879111A142.08 142.08 0 0 1 527.559111 711.111111h40.760889a42.666667 42.666667 0 1 1 0 85.333333h-40.760889c-24.462222 0-46.222222 15.701333-53.873778 38.968889l-2.588444 7.850667A97.507556 97.507556 0 0 1 378.424889 910.222222C168.817778 910.222222 0 737.649778 0 526.222222 0 314.823111 168.846222 142.222222 378.481778 142.222222h267.036444C855.210667 142.222222 1024 314.823111 1024 526.222222 1024 737.649778 855.210667 910.222222 645.518222 910.222222a42.666667 42.666667 0 1 1 0-85.333333C806.798222 824.888889 938.666667 691.825778 938.666667 526.222222 938.666667 360.647111 806.741333 227.555556 645.518222 227.555556h-267.064889 0.056889z" fill="#000000" p-id="6910"></path>
  <path d="M327.111111 373.845333a42.666667 42.666667 0 0 1 42.666667 42.666667V483.555556h66.360889a42.666667 42.666667 0 0 1 0 85.333333h-66.332445v67.043555a42.666667 42.666667 0 0 1-85.333333 0V568.888889H218.026667a42.666667 42.666667 0 0 1 0-85.333333h66.389333v-67.043556a42.666667 42.666667 0 0 1 42.666667-42.666667h0.056889z m381.610667 0a42.666667 42.666667 0 0 1 42.666666 42.666667v24.376889a42.666667 42.666667 0 0 1-85.333333 0v-24.376889a42.666667 42.666667 0 0 1 42.666667-42.666667z m0 195.043556a42.666667 42.666667 0 0 1 42.666666 42.666667v24.376888a42.666667 42.666667 0 0 1-85.333333 0V611.555556a42.666667 42.666667 0 0 1 42.666667-42.666667z" fill="#000000" p-id="6911"></path>
</svg>