<?xml version="1.0" standalone="no"?>
<!DOCTYPE svg PUBLIC "-//W3C//DTD SVG 1.1//EN" "http://www.w3.org/Graphics/SVG/1.1/DTD/svg11.dtd">
<svg t="1606309016976" class="icon" viewBox="0 0 1024 1024" version="1.1"
  xmlns="http://www.w3.org/2000/svg" p-id="3336"
  xmlns:xlink="http://www.w3.org/1999/xlink" width="200" height="200">
  <path d="M512 0c282.76736 0 512 229.23264 512 512s-229.23264 512-512 512S0 794.76736 0 512 229.23264 0 512 0z" fill="#EFC75E" p-id="3337"></path>
  <path d="M337.92 808.96m-92.16 0a92.16 92.16 0 1 0 184.32 0 92.16 92.16 0 1 0-184.32 0Z" fill="#3AA590" p-id="3338"></path>
  <path d="M143.23712 866.99008a92.16 92.16 0 0 0-98.67264-146.1248 512.52224 512.52224 0 0 0 98.67264 146.1248z" fill="#3AA590" p-id="3339"></path>
  <path d="M14.9504 389.12h994.0992C953.99936 165.71392 752.40448 0 512 0S70.00064 165.71392 14.9504 389.12z" fill="#D7B354" p-id="3340"></path>
  <path d="M215.04 276.48h593.92a51.2 51.2 0 0 0 51.2-51.2v-88.55552C768.8192 51.89632 646.5024 0 512 0 377.50784 0 255.1808 51.89632 163.84 136.72448V225.28a51.2 51.2 0 0 0 51.2 51.2z" fill="#324D5B" p-id="3341"></path>
  <path d="M450.56 460.8c-50.90304 0-92.16 41.25696-92.16 92.16s41.25696 92.16 92.16 92.16 92.16-41.25696 92.16-92.16-41.25696-92.16-92.16-92.16z m-266.24 0c-50.90304 0-92.16 41.25696-92.16 92.16s41.25696 92.16 92.16 92.16 92.16-41.25696 92.16-92.16-41.25696-92.16-92.16-92.16z" fill="#E8E7E4" p-id="3342"></path>
  <path d="M450.56 501.76c-28.28288 0-51.2 22.91712-51.2 51.2s22.91712 51.2 51.2 51.2 51.2-22.91712 51.2-51.2-22.91712-51.2-51.2-51.2z m-266.24 0c-28.28288 0-51.2 22.91712-51.2 51.2s22.91712 51.2 51.2 51.2 51.2-22.91712 51.2-51.2-22.91712-51.2-51.2-51.2z" fill="#F2F1EF" p-id="3343"></path>
  <path d="M276.48 143.36h20.48v-20.48h-20.48v20.48z m491.52 20.48v20.48h20.48v-20.48h-20.48z m-112.64-30.72h20.48v-20.48h-20.48v20.48z" fill="#70838D" p-id="3344"></path>
  <path d="M788.48 512c79.17568 0 143.36 64.18432 143.36 143.36s-64.18432 143.36-143.36 143.36-143.36-64.18432-143.36-143.36 64.18432-143.36 143.36-143.36z" fill="#324D5B" p-id="3345"></path>
  <path d="M824.41216 512.0512l76.57472 42.1888-60.78464 100.49536c-12.20608 20.18304-39.24992 27.09504-60.38528 15.44192s-28.37504-37.45792-16.1792-57.64096l60.7744-100.48512z" fill="#5B717C" p-id="3346"></path>
  <path d="M409.6 225.28v-61.44h20.48v-20.48h61.55264L491.52 122.88h10.24v-20.48h20.48v20.48h10.24v20.48h61.44v20.48h20.48v61.44H409.6z" fill="#51BBA8" p-id="3347"></path>
  <path d="M215.04 276.48h593.92a51.2 51.2 0 0 0 51.2-51.2v-88.55552a501.34016 501.34016 0 0 0-20.48-17.95072V225.28c0 16.93696-13.78304 30.72-30.72 30.72H215.04c-16.93696 0-30.72-13.78304-30.72-30.72V118.77376a501.34016 501.34016 0 0 0-20.48 17.95072V225.28a51.2 51.2 0 0 0 51.2 51.2z" fill="#233640" p-id="3348"></path>
  <path d="M184.32 604.16a51.2 51.2 0 0 1-51.2-51.2c0-11.52 3.9424-22.03648 10.36288-30.58688C131.04128 531.712 122.88 546.43712 122.88 563.2a51.2 51.2 0 0 0 51.2 51.2c16.76288 0 31.49824-8.16128 40.83712-20.61312A50.72896 50.72896 0 0 1 184.32 604.16z m266.24 0a51.2 51.2 0 0 1-51.2-51.2c0-11.52 3.9424-22.03648 10.36288-30.58688C397.28128 531.712 389.12 546.43712 389.12 563.2a51.2 51.2 0 0 0 51.2 51.2c16.76288 0 31.49824-8.16128 40.83712-20.61312A50.72896 50.72896 0 0 1 450.56 604.16z" fill="#E2E1DF" p-id="3349"></path>
  <path d="M337.92 860.16a51.2 51.2 0 0 1-51.2-51.2c0-11.52 3.9424-22.03648 10.36288-30.58688C284.64128 787.712 276.48 802.43712 276.48 819.2a51.2 51.2 0 0 0 51.2 51.2c16.76288 0 31.49824-8.16128 40.83712-20.61312A50.72896 50.72896 0 0 1 337.92 860.16z" fill="#349481" p-id="3350"></path>
  <path d="M840.20224 654.73536c-12.20608 20.18304-39.24992 27.09504-60.38528 15.44192-17.5104-9.64608-25.28256-28.99968-20.57216-46.83776l-5.84704 9.6768c-12.19584 20.18304-4.95616 45.98784 16.1792 57.64096s48.1792 4.74112 60.38528-15.44192l10.24-20.48z" fill="#70838D" p-id="3351"></path>
  <path d="M880.64 368.64c73.5232 0 133.12 59.5968 133.12 133.12s-59.5968 133.12-133.12 133.12-133.12-59.5968-133.12-133.12 59.5968-133.12 133.12-133.12z" fill="#D05046" p-id="3352"></path>
  <path d="M880.64 368.64c-48.11776 0-90.15296 25.62048-113.54112 63.87712A132.56704 132.56704 0 0 0 757.76 481.28c0 73.5232 59.5968 133.12 133.12 133.12 48.11776 0 90.15296-25.62048 113.54112-63.87712C1010.3808 535.40864 1013.76 518.99392 1013.76 501.76c0-73.5232-59.5968-133.12-133.12-133.12z" fill="#E2574C" p-id="3353"></path>
  <path d="M931.84 399.36a30.72 30.72 0 1 1 0 61.44 30.72 30.72 0 0 1 0-61.44z" fill="#EB8A82" p-id="3354"></path>
  <path d="M847.3088 642.99008l6.53312-10.81344a133.00736 133.00736 0 0 1-75.01824-44.7488l-7.81312 12.91264a132.7104 132.7104 0 0 0 76.29824 42.6496z" fill="#4F5E66" p-id="3355"></path>
  <path d="M337.92 808.96m-51.2 0a51.2 51.2 0 1 0 102.4 0 51.2 51.2 0 1 0-102.4 0Z" fill="#46BDA8" p-id="3356"></path>
  <path d="M71.68 757.76c-2.87744 0-5.66272 0.38912-8.41728 0.84992a512.78848 512.78848 0 0 0 51.97824 76.94336A50.78016 50.78016 0 0 0 122.88 808.96a51.2 51.2 0 0 0-51.2-51.2z" fill="#46BDA8" p-id="3357"></path>
</svg>