<?xml version="1.0" standalone="no"?><!DOCTYPE svg PUBLIC "-//W3C//DTD SVG 1.1//EN" "http://www.w3.org/Graphics/SVG/1.1/DTD/svg11.dtd"><svg t="1585040699565" class="icon" viewBox="0 0 1024 1024" version="1.1" xmlns="http://www.w3.org/2000/svg" p-id="4350" xmlns:xlink="http://www.w3.org/1999/xlink" width="200" height="200"><defs><style type="text/css"></style></defs><path d="M981.929813 524.629333c-9.756444 0-19.626667-3.413333-27.534222-10.211555L538.395591 154.965333l-4.494222-4.124444a31.488 31.488 0 0 0-43.320889 0c-1.251556 1.28-2.816 2.702222-4.494222 4.124444L69.944036 514.417778a42.097778 42.097778 0 0 1-59.676445-4.551111 42.723556 42.723556 0 0 1 4.522667-60.017778L430.761813 90.339556c0.284444-0.284444 1.137778-0.995556 1.422223-1.422223a115.484444 115.484444 0 0 1 159.687111 0l1.422222 1.422223L1009.23648 449.820444c17.777778 15.36 19.768889 42.183111 4.522667 60.046223-8.192 9.671111-20.024889 14.791111-31.857778 14.791111zM769.023147 995.555556h-77.027556c-61.354667 0-111.303111-50.261333-111.303111-112.014223V762.026667a27.192889 27.192889 0 0 0-26.652444-26.851556H477.040924a26.823111 26.823111 0 0 0-26.652444 26.851556v121.514666c0 61.752889-49.948444 112.014222-111.303111 112.014223H256.283591c-61.354667 0-111.303111-50.261333-111.303111-112.014223v-392.248889a42.382222 42.382222 0 0 1 42.325333-42.609777 42.382222 42.382222 0 0 1 42.325334 42.609777v392.248889c0 14.791111 11.975111 26.823111 26.652444 26.823111h82.801778a26.823111 26.823111 0 0 0 26.652444-26.823111V762.026667c0-61.781333 49.948444-112.014222 111.303111-112.014223h77.027556c61.354667 0 111.303111 50.232889 111.303111 112.014223v121.514666c0 14.791111 11.975111 26.823111 26.652445 26.823111h77.027555a26.823111 26.823111 0 0 0 26.652445-26.823111v-392.248889a42.382222 42.382222 0 0 1 42.325333-42.609777 42.382222 42.382222 0 0 1 42.325333 42.609777v392.248889c0 61.752889-49.948444 112.014222-111.303111 112.014223z" fill="#000000" p-id="4351"></path></svg>