<?xml version="1.0" standalone="no"?>
<!DOCTYPE svg PUBLIC "-//W3C//DTD SVG 1.1//EN" "http://www.w3.org/Graphics/SVG/1.1/DTD/svg11.dtd">
<svg t="1586793981746" class="icon" viewBox="0 0 1024 1024" version="1.1"
  xmlns="http://www.w3.org/2000/svg" p-id="4066"
  xmlns:xlink="http://www.w3.org/1999/xlink" width="200" height="200">
  <path d="M512.195982 967.111111a147.939556 147.939556 0 0 1-107.235555-45.738667c-0.426667-0.426667-0.853333-0.967111-1.251556-1.393777L70.738204 544.028444c-0.284444-0.284444-0.426667-0.568889-0.711111-0.853333A296.476444 296.476444 0 0 1 2.158649 386.275556a309.902222 309.902222 0 0 1 23.722667-159.573334C46.162204 180.081778 77.507982 139.946667 116.419982 110.705778A269.482667 269.482667 0 0 1 262.624427 57.457778a317.070222 317.070222 0 0 1 171.150222 38.314666 330.723556 330.723556 0 0 1 78.279111 59.847112 326.257778 326.257778 0 0 1 78.307556-59.847112 317.496889 317.496889 0 0 1 171.121777-38.314666 269.880889 269.880889 0 0 1 146.176 53.276444c38.940444 29.240889 70.257778 69.376 90.567111 115.939556a308.451556 308.451556 0 0 1 23.722667 159.573333 297.585778 297.585778 0 0 1-67.868444 156.928c-0.284444 0.284444-0.426667 0.568889-0.711111 0.853333l-332.515556 375.950223c-0.455111 0.426667-0.853333 0.967111-1.28 1.422222A148.48 148.48 0 0 1 512.195982 967.111111z m-45.710222-103.224889a64.284444 64.284444 0 0 0 45.710222 19.313778c17.066667 0 33.28-6.855111 45.710222-19.313778L889.596871 489.244444c53.191111-63.658667 65.052444-151.324444 31.175111-229.12-30.606222-70.058667-91.989333-114.403556-164.209778-118.869333a237.568 237.568 0 0 0-14.108444-0.426667c-77.027556 0-150.129778 39.168-195.413333 104.903112a42.496 42.496 0 0 1-69.973334 0c-45.283556-65.592889-118.385778-104.903111-195.413333-104.903112-4.636444 0-9.443556 0.142222-14.108444 0.426667-72.248889 4.323556-133.603556 48.810667-164.209778 118.897778-33.848889 77.738667-22.016 165.432889 31.175111 229.091555l331.946667 374.670223z" fill="#000000" p-id="4067"></path>
</svg>