<?xml version="1.0" standalone="no"?><!DOCTYPE svg PUBLIC "-//W3C//DTD SVG 1.1//EN" "http://www.w3.org/Graphics/SVG/1.1/DTD/svg11.dtd"><svg t="1585539350709" class="icon" viewBox="0 0 1024 1024" version="1.1" xmlns="http://www.w3.org/2000/svg" p-id="7238" xmlns:xlink="http://www.w3.org/1999/xlink" width="200" height="200"><defs><style type="text/css"></style></defs><path d="M960.55751111 108.29824h-391.46837333l-29.12711111 74.56540445h360.59363555c25.04931555 0 44.85575111 19.80643555 44.85575111 44.8557511v283.69806223L806.76636445 372.77240889c-14.56355555-14.56355555-37.86524445-14.56355555-52.4288 0l-119.42115556 119.42115556 73.98286222 43.10812444-156.12131556 305.25212444-38.44778666 74.56540445H960.55751111c33.20490667 0 60.00184889-26.79694222 60.00184889-60.00184889v-687.39982222c0-32.62236445-26.79694222-59.41930667-60.00184889-59.41930667z m-410.10972444 468.94648889l-106.60522667 106.60522666-145.63555555-145.63555555c-11.65084445-11.65084445-30.87473778-11.65084445-42.52558223 0l-177.67537777 177.09283555V227.13685333c0-25.04931555 20.38897778-44.85575111 44.8557511-44.85575111h291.85365334l29.12711111-74.56540444H63.44248889c-33.20490667 0-60.00184889 26.79694222-60.00184889 60.00184889v687.98236444c0 33.20490667 26.79694222 60.00184889 60.00184889 60.00184889h320.98076444l38.44778667-74.56540445 133.40216889-260.39637333-5.82542222-3.49525333z" fill="#2c2c2c" p-id="7239"></path><path d="M397.23918222 915.70176h-26.79694222l169.51978667-330.88398222-240.00739556-140.39267556 131.65454222-336.12686222h25.04931556l-127.57674667 326.22364445 241.75502223 141.55776z" fill="#2c2c2c" p-id="7240"></path><path d="M525.39847111 915.70176h-26.79694222l195.73418666-375.73973333-249.3280711-145.63555556 111.84810666-286.02823111h23.88423111l-107.18776889 275.54247111 251.65824 147.38318222z" fill="#2c2c2c" p-id="7241"></path></svg>