<?xml version="1.0" standalone="no"?>
<!DOCTYPE svg PUBLIC "-//W3C//DTD SVG 1.1//EN" "http://www.w3.org/Graphics/SVG/1.1/DTD/svg11.dtd">
<svg t="1587913794887" class="icon" viewBox="0 0 1024 1024" version="1.1"
  xmlns="http://www.w3.org/2000/svg" p-id="4619"
  xmlns:xlink="http://www.w3.org/1999/xlink" width="200" height="200">
  <path d="M512 0c282.76736 0 512 229.23264 512 512s-229.23264 512-512 512S0 794.76736 0 512 229.23264 0 512 0z" fill="#EDEDED" p-id="4620"></path>
  <path d="M812.25728 554.63936l-144.1792 168.192c-12.21632 14.25408-25.56928 27.58656-40.704 38.69696-96.256 70.63552-232.46848 62.30016-319.72352-24.91392-87.25504-87.20384-95.5904-224.8704-24.92416-330.81344 11.1104-16.66048 24.46336-31.35488 38.72768-44.8l168.28416-158.70976C502.91712 189.88032 583.68 230.63552 583.68 230.63552V307.2s-2.79552 7.75168-10.15808 15.12448L394.37312 475.72992c-48.00512 47.99488-47.91296 125.89056 0.22528 173.99808 48.13824 48.11776 126.07488 48.22016 174.10048 0.22528l153.4976-179.0464c20.44928-23.86944 97.00352-5.94944 97.00352-5.94944V542.72s-0.89088 4.864-6.94272 11.91936z" fill="#C34C43" p-id="4621"></path>
  <path d="M575.09888 208.15872a28.93824 28.93824 0 0 1-1.57696 42.47552L394.37312 404.04992c-48.00512 47.99488-47.91296 125.89056 0.22528 173.99808 48.13824 48.11776 126.07488 48.22016 174.10048 0.22528l153.4976-179.0464a28.9792 28.9792 0 0 1 42.496-1.57696l45.99808 45.96736a28.9792 28.9792 0 0 1 1.55648 39.34208l-144.1792 168.192c-12.21632 14.25408-25.56928 27.5968-40.704 38.69696-96.256 70.63552-232.46848 62.30016-319.72352-24.91392-87.25504-87.20384-95.5904-223.34464-24.92416-319.5392 11.1104-15.12448 24.46336-28.45696 38.72768-40.67328l168.28416-144.10752a28.99968 28.99968 0 0 1 39.35232 1.56672l46.01856 45.9776z" fill="#E2574C" p-id="4622"></path>
  <path d="M757.76 458.752v159.46752l54.49728-63.58016C818.30912 547.584 819.2 542.72 819.2 542.72v-77.76256s-32.98304-7.65952-61.44-6.20544zM573.52192 322.32448C580.88448 314.95168 583.68 307.2 583.68 307.2v-76.56448s-15.54432-7.84384-34.0992-15.59552H512v159.95904l61.52192-52.67456z" fill="#B5B5B3" p-id="4623"></path>
  <path d="M529.1008 162.19136a28.99968 28.99968 0 0 0-39.35232-1.56672l-64.0512 54.84544 87.1424 87.1424 60.69248-51.968a28.93824 28.93824 0 0 0 1.57696-42.47552l-46.00832-45.9776z m235.60192 235.45856a28.9792 28.9792 0 0 0-42.496 1.57696l-52.03968 60.70272 87.1424 87.1424 54.95808-64.12288a28.9792 28.9792 0 0 0-1.55648-39.34208l-46.00832-45.95712z" fill="#D9D8D7" p-id="4624"></path>
</svg>