<?xml version="1.0" standalone="no" ?>
<!DOCTYPE svg PUBLIC "-//W3C//DTD SVG 1.1//EN" "http://www.w3.org/Graphics/SVG/1.1/DTD/svg11.dtd">
<svg t="1584623859402" class="icon" viewBox="0 0 1024 1024" version="1.1"
  xmlns="http://www.w3.org/2000/svg" p-id="8818"
  xmlns:xlink="http://www.w3.org/1999/xlink" width="200" height="200">
  <path d="M446.537143 467.748571a109.714286 109.714286 0 1 0 77.897143 31.817143 109.714286 109.714286 0 0 0-77.897143-31.817143z" fill="#7480FF" p-id="8819"></path>
  <path d="M512 0a512 512 0 1 0 512 512A512 512 0 0 0 512 0z m89.965714 731.428571a219.428571 219.428571 0 1 1 0-310.491428 219.428571 219.428571 0 0 1 0 310.491428z m149.211429-261.12a41.691429 41.691429 0 0 1-9.508572 0 43.885714 43.885714 0 0 1-42.788571-31.451428l-19.748571-92.891429L585.142857 325.12a44.251429 44.251429 0 0 1-33.645714-52.297143 43.885714 43.885714 0 0 1 52.297143-33.645714l120.32 25.965714a43.885714 43.885714 0 0 1 33.645714 33.645714l25.965714 120.32a44.251429 44.251429 0 0 1-32.548571 52.297143z" fill="#7480FF" p-id="8820"></path>
</svg>