<?xml version="1.0" standalone="no"?>
<!DOCTYPE svg PUBLIC "-//W3C//DTD SVG 1.1//EN" "http://www.w3.org/Graphics/SVG/1.1/DTD/svg11.dtd">
<svg t="1587020075208" class="icon" viewBox="0 0 1024 1024" version="1.1"
  xmlns="http://www.w3.org/2000/svg" p-id="3620"
  xmlns:xlink="http://www.w3.org/1999/xlink" width="200" height="200">
  <path d="M511.99488 0c282.764532 0 511.99488 229.230348 511.99488 511.99488s-229.230348 511.99488-511.99488 511.99488S0 794.759412 0 511.99488 229.230348 0 511.99488 0z" fill="#3DB39E" p-id="3621"></path>
  <path d="M409.595904 215.03785c-28.282597 0-51.199488 22.916891-51.199488 51.199488s22.916891 51.199488 51.199488 51.199488 51.199488-22.916891 51.199488-51.199488-22.916891-51.199488-51.199488-51.199488z m0 71.679283a20.479795 20.479795 0 1 1 0.01024-40.96983A20.479795 20.479795 0 0 1 409.595904 286.717133z m204.797952-71.679283c-28.282597 0-51.199488 22.916891-51.199488 51.199488s22.916891 51.199488 51.199488 51.199488 51.199488-22.916891 51.199488-51.199488-22.916891-51.199488-51.199488-51.199488z m0 71.679283a20.479795 20.479795 0 1 1 0.01024-40.96983A20.479795 20.479795 0 0 1 614.393856 286.717133z" fill="#E1E1E1" p-id="3622"></path>
  <path d="M548.930191 839.548725C563.788282 830.209938 573.434266 815.423526 573.434266 798.712013l-0.204798-7.567284L573.434266 788.472115l-0.194558-7.157688C690.742533 753.635984 778.232218 648.185518 778.232218 522.234778c0-147.03469-119.202648-266.237338-266.237338-266.237338S245.757542 375.200088 245.757542 522.234778c0 125.95074 87.489685 231.401206 204.99251 259.079649L450.555494 788.472115l0.204798 2.713573L450.555494 798.712013c0 16.711513 9.645984 31.497925 24.504075 40.836712-7.065529 50.636294-12.103559 107.908041-14.151538 181.891301 16.793432 1.669103 33.832622 2.549735 51.086849 2.549734s34.293417-0.880631 51.097089-2.549734c-2.04798-73.98326-7.086009-131.244768-14.161778-181.891301z" fill="#F2F1EF" p-id="3623"></path>
  <path d="M501.754982 266.237338c-147.03469 0-266.237338 119.202648-266.237337 266.237337 0 125.95074 87.489685 231.401206 204.99251 259.079649L440.315597 798.712013l0.204798 2.713573L440.315597 808.95191c0 16.711513 9.645984 31.497925 24.504075 40.836712-6.696893 47.97392-11.540365 102.03034-13.782902 170.453336C471.03529 1022.627854 491.351246 1023.98976 511.99488 1023.98976c13.660023 0 27.156208-0.696313 40.549995-1.751022-2.211818-69.375306-7.086009-124.0154-13.854582-172.450116C553.548385 840.449836 563.194368 825.663423 563.194368 808.95191l-0.204798-7.567284L563.194368 798.712013l-0.194558-7.157689C680.502635 763.875881 767.99232 658.425416 767.99232 532.474675c0-147.03469-119.202648-266.237338-266.237338-266.237337z" fill="#37A18E" p-id="3624"></path>
  <path d="M778.232218 522.234778c0-123.175728-83.670203-226.772772-197.271628-257.164789A71.576884 71.576884 0 0 0 583.674163 245.757542a71.679283 71.679283 0 1 0-143.358566 0c0 6.696893 0.99327 13.158268 2.713573 19.312447C329.427746 295.462005 245.757542 399.059049 245.757542 522.234778c0 125.95074 87.489685 231.401206 204.99251 259.079649L450.555494 788.472115l0.204798 2.713573L450.555494 798.712013c0 16.711513 9.645984 31.497925 24.504075 40.836712-7.147449 51.230208-12.236678 109.188028-14.243697 184.441035h102.358016c-1.99678-75.253007-7.086009-133.210828-14.243697-184.441035C563.788282 830.209938 573.434266 815.423526 573.434266 798.712013l-0.204798-7.567284L573.434266 788.472115l-0.194558-7.157688C690.742533 753.635984 778.232218 648.185518 778.232218 522.234778zM471.03529 245.757542a40.95959 40.95959 0 0 1 81.91918 0c0 4.597714-0.931831 8.939431-2.334696 13.06611A268.244358 268.244358 0 0 0 511.99488 255.99744a268.490115 268.490115 0 0 0-38.635134 2.826212A40.652393 40.652393 0 0 1 471.03529 245.757542z" fill="#F2F1EF" p-id="3625"></path>
  <path d="M462.280177 993.270067c0.296957-6.870971 0.583674-13.782902 0.931831-20.479795h97.575984c0.348157 6.696893 0.634874 13.608824 0.931831 20.479795h-99.439646z m2.119659-40.95959c0.430076-6.95289 0.890871-13.762422 1.372146-20.479795h92.456036c0.481275 6.717373 0.942071 13.526905 1.372146 20.479795h-95.200328z m92.271717-40.959591h-89.363586c0.583674-6.95289 1.157108-13.834102 1.802222-20.479795h85.759142c0.645114 6.645694 1.228788 13.526905 1.802222 20.479795z" fill="#DBDDDD" p-id="3626"></path>
  <path d="M511.99488 296.95703c124.414756 0 225.277747 100.862991 225.277747 225.277748s-100.862991 225.277747-225.277747 225.277747-225.277747-100.862991-225.277747-225.277747 100.862991-225.277747 225.277747-225.277748z" fill="#93D3E8" p-id="3627"></path>
  <path d="M511.99488 327.676723c119.253847 0 216.799112 92.671073 224.694073 209.917901 0.348157-5.078989 0.583674-10.188698 0.583674-15.359846 0-124.414756-100.862991-225.277747-225.277747-225.277748s-225.277747 100.862991-225.277747 225.277748c0 5.171148 0.235518 10.280857 0.583674 15.359846C295.195768 420.347797 392.741033 327.676723 511.99488 327.676723z" fill="#84BDD0" p-id="3628"></path>
  <path d="M544.936631 745.095909a224.345917 224.345917 0 0 0 115.075969-53.114349L438.97417 309.122029a225.615664 225.615664 0 0 0-103.474165 73.205028l209.436626 362.768852z m-18.08366-447.596164C521.937821 297.172068 516.99195 296.95703 511.99488 296.95703c-10.680213 0-21.176108 0.798712-31.467205 2.232298L689.401106 660.98539a225.124149 225.124149 0 0 0 24.678153-39.188088l-187.226288-324.297557z" fill="#A9DCED" p-id="3629"></path>
  <path d="M526.852971 297.499745C521.937821 297.172068 516.99195 296.95703 511.99488 296.95703c-10.680213 0-21.176108 0.798712-31.467205 2.232298l16.854871 29.193948c4.853711-0.307197 9.686943-0.706553 14.612334-0.706553 11.550604 0 22.814492 1.116149 33.904301 2.795492l-19.04621-32.97247z m-87.878801 11.622284a225.615664 225.615664 0 0 0-103.474165 73.205028l10.639254 18.431815a224.837432 224.837432 0 0 1 108.01044-65.361266l-15.175529-26.275577z" fill="#98C6D5" p-id="3630"></path>
  <path d="M511.99488 849.911501c-13.885301 0-26.654453-3.880921-36.935311-10.362776l-1.310706 9.430945C484.244758 855.95304 497.525905 860.151398 511.99488 860.151398s27.750122-4.198358 38.246018-11.171728l-1.310707-9.430945C538.649334 846.03058 525.869941 849.911501 511.99488 849.911501z m-60.620194-58.398136c19.496765 4.546515 39.730803 7.198648 60.620194 7.198648s41.123429-2.652133 60.630434-7.198648c0.276477 2.805732 0.491515 6.727613 0.634873 10.239897L573.434266 798.712013c0-2.815972-0.276477-12.154758-0.808952-17.438546C553.118309 785.819982 532.884271 788.472115 511.99488 788.472115s-41.123429-2.652133-60.620194-7.198648c-0.532475 5.283787-0.819192 14.622574-0.819192 17.438546l0.194558 3.092449c0.133119-3.522525 0.348157-7.475125 0.624634-10.291097z" fill="#CFCECC" p-id="3631"></path>
</svg>