<?xml version="1.0" standalone="no"?>
<!DOCTYPE svg PUBLIC "-//W3C//DTD SVG 1.1//EN" "http://www.w3.org/Graphics/SVG/1.1/DTD/svg11.dtd">
<svg t="1585925864834" class="icon" viewBox="0 0 1024 1024" version="1.1"
  xmlns="http://www.w3.org/2000/svg" p-id="7055"
  xmlns:xlink="http://www.w3.org/1999/xlink" width="200" height="200">
  <path d="M862.663111 464.327111a146.346667 146.346667 0 0 0-42.666667 5.973333v-48.64a128 128 0 0 0-128-128H128.369778a128 128 0 0 0-128 128v245.333334a341.333333 341.333333 0 0 0 341.333333 341.333333h138.666667a341.333333 341.333333 0 0 0 329.813333-256 145.066667 145.066667 0 0 0 52.48 10.666667 149.333333 149.333333 0 0 0 0-298.666667z m-128 202.666667a256 256 0 0 1-256 256h-136.96a256 256 0 0 1-256-256v-245.333334a42.666667 42.666667 0 0 1 42.666667-42.666666h565.333333a42.666667 42.666667 0 0 1 42.666667 42.666666l-1.706667 245.333334z m128 10.666666a62.72 62.72 0 0 1-37.546667-12.373333h-3.413333v-101.546667h2.986667a64 64 0 1 1 37.973333 113.92zM204.743111 188.302222l-8.106667 12.373334a42.666667 42.666667 0 0 0 11.946667 59.306666 42.666667 42.666667 0 0 0 23.466667 7.253334 42.666667 42.666667 0 0 0 35.413333-19.2l8.106667-12.373334a102.826667 102.826667 0 0 0-13.226667-128 19.626667 19.626667 0 0 1-2.986667-27.306666l9.386667-15.786667A42.666667 42.666667 0 0 0 195.356444 21.048889l-9.386666 16.64a105.386667 105.386667 0 0 0 15.36 128c6.968889 5.432889 8.448 15.36 3.413333 22.613333z m178.773333 0l-8.106666 12.373334a42.666667 42.666667 0 0 0 35.413333 66.56 42.666667 42.666667 0 0 0 35.413333-19.2l8.106667-12.373334a102.826667 102.826667 0 0 0-13.226667-128 20.053333 20.053333 0 0 1-3.413333-27.306666l9.813333-15.786667a42.666667 42.666667 0 0 0-73.386666-43.52l-9.386667 16.64a105.386667 105.386667 0 0 0 16.64 128c6.172444 5.973333 7.082667 15.587556 2.133333 22.613333z m178.773334 0l-8.106667 12.373334a42.666667 42.666667 0 0 0 35.413333 66.56 42.666667 42.666667 0 0 0 35.413334-19.2l8.106666-12.373334a102.826667 102.826667 0 0 0-13.226666-128 20.053333 20.053333 0 0 1-3.413334-27.306666l11.52-15.36A42.666667 42.666667 0 0 0 611.356444 6.542222a42.666667 42.666667 0 0 0-58.453333 14.506667l-10.24 16.64a105.813333 105.813333 0 0 0 16.213333 128 17.493333 17.493333 0 0 1 3.413334 22.613333z" fill="#000000" p-id="7056"></path>
</svg>