<?xml version="1.0" encoding="iso-8859-1"?>
<!-- Generator: Adobe Illustrator 22.0.0, SVG Export Plug-In . SVG Version: 6.00 Build 0)  -->
<svg version="1.1" id="&#x56FE;&#x5C42;_1" xmlns="http://www.w3.org/2000/svg" xmlns:xlink="http://www.w3.org/1999/xlink" x="0px"
	 y="0px" viewBox="0 0 200 200" style="enable-background:new 0 0 200 200;" xml:space="preserve">
<path style="fill:#666666;" d="M142.939,109.018c-2.687,0-5.367-1.073-7.513-3.113l-87.14-86.287
	c-4.187-4.18-4.187-10.833-0.107-15.02c4.126-4.159,10.836-4.207,15.02-0.107l87.147,86.28c4.164,4.126,4.211,10.842,0.107,15.027
	C148.519,108.051,145.726,109.018,142.939,109.018L142.939,109.018z"/>
<path style="fill:#666666;" d="M56.759,196.158c-2.68,0-5.36-1.073-7.507-3.113c-4.187-4.187-4.187-10.84-0.107-15.027l86.28-87.133
	c4.125-4.166,10.84-4.216,15.027-0.113c4.164,4.126,4.211,10.842,0.107,15.027l-86.287,87.14
	C62.312,194.99,59.598,196.153,56.759,196.158z"/>
</svg>
