<?xml version="1.0" standalone="no"?>
<!DOCTYPE svg PUBLIC "-//W3C//DTD SVG 1.1//EN" "http://www.w3.org/Graphics/SVG/1.1/DTD/svg11.dtd">
<svg t="1606357982370" class="icon" viewBox="0 0 1024 1024" version="1.1"
  xmlns="http://www.w3.org/2000/svg" p-id="3727"
  xmlns:xlink="http://www.w3.org/1999/xlink" width="200" height="200">
  <path d="M511.959043 0C229.214303 0 0 229.214303 0 511.959043c0 282.75498 229.214303 511.959043 511.959043 511.959044s511.959043-229.204064 511.959044-511.959044c0-282.74474-229.214303-511.959043-511.959044-511.959043z" fill="#91D8F0" p-id="3728"></path>
  <path d="M747.460203 552.915767H255.979522c-16.966323 0-30.50252 20.263339-51.195905 40.956723 0 0-30.717543 33.932645-30.717542 40.936245C174.066075 642.232141 204.783617 675.785937 204.783617 675.785937c20.49884 20.49884 34.229582 40.956723 51.195905 40.956724h491.480681a30.717543 30.717543 0 0 0 30.717543-30.717543V583.633309a30.717543 30.717543 0 0 0-30.717543-30.717542zM255.979522 337.892969h491.480681c16.966323 0 30.50252 20.263339 51.195905 40.956723 0 0 30.717543 33.942885 30.717542 40.946484C829.37365 427.209343 798.656108 460.763139 798.656108 460.763139c-20.49884 20.49884-34.229582 40.956723-51.195905 40.956723H255.979522a30.717543 30.717543 0 0 1-30.717543-30.717542V368.610511a30.717543 30.717543 0 0 1 30.717543-30.717542z" fill="#82C2D8" p-id="3729"></path>
  <path d="M884.419486 863.009359C781.075434 841.957603 652.102712 829.37365 511.959043 829.37365c-140.143669 0-269.116391 12.583953-372.450204 33.635709C232.859451 962.022238 365.139429 1023.918087 511.959043 1023.918087s279.099592-61.895848 372.460443-160.908728z" fill="#3DB39E" p-id="3730"></path>
  <path d="M593.87249 266.218703a30.717543 30.717543 0 0 0-30.717542-30.717543H460.763139a30.717543 30.717543 0 0 0-30.717543 30.717543v751.105351c26.673066 4.290217 54.021918 6.604272 81.913447 6.604272s55.240381-2.314055 81.913447-6.604272V266.218703z" fill="#AC5C32" p-id="3731"></path>
  <path d="M490.917527 235.50116h-13.812655l4.177585 11.826254c11.058315 30.420606 36.942965 79.742741 61.988001 127.457323 15.983361 30.461563 36.492441 69.564995 50.591793 100.343973v-30.348932c-10.300616-20.898168-23.25318-45.912487-39.082953-76.077114-24.830014-47.325494-50.509879-96.258539-61.261019-125.849772L490.917527 235.50116zM593.87249 386.518838C570.537397 336.101112 548.635789 283.318135 529.62163 235.50116h-13.894568C541.13047 299.403888 567.353012 361.934565 593.87249 417.297816v-30.778978z m0 234.815135c-31.710743-24.574034-59.407727-41.478922-77.029357-45.277658-8.365411-1.802096-14.898008-0.778178-19.423727 3.020559-7.239101 6.082073-10.792097 14.918487-10.269898 25.536517 1.648508 33.533317 44.294696 86.592753 106.733221 134.686185v-16.700104c-53.970722-43.37317-92.367651-90.934165-93.729461-118.631149-0.317415-6.573554 1.515399-11.437165 5.641788-14.898009 0.450524-0.389089 2.385729-1.535877 8.324454-0.255979 16.87417 3.634909 46.035357 21.963043 79.763219 48.718022v-16.198384zM543.536677 835.312375c11.846732 2.303816 24.799296 19.659227 39.594912 53.038957 3.215103 7.280058 6.798816 16.423646 10.740901 27.031437v-34.782497c-16.843453-37.332053-31.239741-54.851292-47.86817-58.097112-16.413407-3.163907-31.782417 7.935365-51.308536 26.918806-21.645628 21.041517-1.177506 93.975202 35.693785 174.035357 4.648588-0.163827 9.286937-0.358371 13.904807-0.645068-36.758659-78.87241-56.776258-148.2531-40.547156-164.011199 16.065275-15.62499 28.956403-25.608191 39.789457-23.488681z m27.912007-170.881689a6.553076 6.553076 0 0 0 2.866971 8.774978A236.217903 236.217903 0 0 1 593.87249 684.550676V669.13047a234.436285 234.436285 0 0 0-13.679545-7.566755 6.491641 6.491641 0 0 0-8.744261 2.866971z m-40.199024 226.634029c1.279898-3.12295 2.303816-3.675866 2.283337-3.675866h0.081914c2.631469 0 13.812655 8.580434 32.25342 47.540517 13.290457 28.065595 22.9972 56.397408 23.836813 63.575074a6.450684 6.450684 0 0 0 4.167346 5.262939v-35.601632c-13.188065-35.980482-38.652908-90.954644-58.455483-93.688505-4.034237-0.583633-11.4986 0.204784-16.188145 11.611231-8.027518 19.50564 16.188145 76.783617 45.984161 135.075274 4.648588-0.481242 9.225502-1.146788 13.843372-1.761139-31.055436-60.134709-53.919526-113.480842-47.806735-128.337893zM430.045596 902.010399v59.213183a640.942005 640.942005 0 0 0 18.553396 58.660267c4.832893 0.593872 9.655548 1.197984 14.539637 1.658748-14.74442-38.663147-25.137189-78.554996-33.093033-119.532198zM565.49972 775.515559c9.051436 8.518998 18.604592 17.539717 28.37277 26.826654v-17.980002l-19.464683-18.36909c-29.284057-27.553636-54.585073-51.38021-72.728901-71.418287-28.045116-30.973522-50.37677-70.230542-71.63331-115.231741v29.642428c18.338373 36.041917 38.079514 67.936965 62.00848 94.37453 18.481721 20.427166 43.956803 44.397088 73.445644 72.155508z m11.201664-536.737861a30.584433 30.584433 0 0 0-12.655628-3.194625c-5.692985 16.454364-4.822654 43.680346 12.225582 88.75322A1216.691145 1216.691145 0 0 0 593.87249 368.282857v-34.598192c-1.822574-4.648588-3.62467-9.194784-5.437005-13.976482-14.13007-37.37301-18.020958-65.182625-11.734101-80.930485zM465.237661 827.356531c9.25622-29.079274 22.577394-45.154788 39.584673-47.837453 23.980162-3.757779 56.161907 19.096072 86.039837 61.138149l3.010319 4.771459v-22.290697c-31.106631-40.117111-63.87201-60.738821-91.067274-56.4998-22.270218 3.481321-39.082953 22.577394-49.977442 56.74554-14.171026 44.479002 9.798896 122.347972 45.083113 200.175986 4.689545 0.133109 9.338133 0.358371 14.048156 0.358372l0.481242-0.01024c-35.683545-77.049836-60.646668-154.355652-47.202624-196.551316zM430.045596 301.799856v19.055116c45.697464 47.980802 56.75578 47.909127 63.820815 43.127429 7.607711-5.150308 12.010559-16.433885-24.25662-91.097992a911.174466 911.174466 0 0 1-16.566994-36.277418c-4.331174 1.12631-8.25278 3.184385-11.621471 5.928486a938.390209 938.390209 0 0 0 16.485081 36.062395c25.618431 52.742021 28.311335 69.053036 28.13727 73.824494-4.433565-1.535877-18.184785-9.778418-55.998081-50.62251z m163.826894 264.672586c-53.25398-39.912327-109.467083-84.309415-163.826894-144.044796v19.157507c54.677226 58.117591 110.839133 101.654588 163.826894 141.177826v-16.290537z m0-51.216382c-40.475482-24.256619-101.173346-90.442685-163.826894-161.942885v19.75138c62.87881 71.367091 123.228542 135.87393 163.826894 157.232861v-15.041356z" fill="#B26841" p-id="3732"></path>
  <path d="M430.045596 266.218703v751.105351c10.147028 1.62803 20.37597 3.020558 30.717543 4.044477V266.218703a30.717543 30.717543 0 0 1 30.717543-30.717543h-30.717543a30.717543 30.717543 0 0 0-30.717543 30.717543z m0 286.697064h163.826894v163.826894H430.045596z" fill="#9A532D" p-id="3733"></path>
  <path d="M430.045596 373.064555a3537.12503 3537.12503 0 0 0 30.717543 34.444604v-19.474922c-10.136789-11.324534-20.396448-22.935765-30.717543-34.721062v19.75138z m0-71.264699v19.055116c12.737541 13.37237 22.700264 22.905048 30.717543 29.74482V333.080554c-7.87393-7.37221-17.87761-17.416847-30.717543-31.280698zM490.917527 235.50116h-13.812655l1.105831 3.12295a30.307975 30.307975 0 0 1 12.727302-3.071754L490.917527 235.50116z m-44.018239 3.440365l-0.071674 0.040956a31.045196 31.045196 0 0 0-5.396049 3.542757h-0.010239a938.390209 938.390209 0 0 0 16.485081 36.062395l2.846493 5.948964V266.218703c0-3.153668 0.614351-6.133269 1.49492-9.00024-3.204864-7.0036-6.286857-13.884329-9.215263-20.621711-2.139989 0.563155-4.198064 1.351572-6.133269 2.344773zM430.045596 441.574914a876.760579 876.760579 0 0 0 30.717543 30.912087v-18.195024a855.790737 855.790737 0 0 1-30.717543-31.864331v19.147268z m0 167.420846a552.383329 552.383329 0 0 0 30.717543 53.37685v-24.512599c-10.771618-18.133589-20.87769-37.669946-30.717543-58.506679v29.642428z m30.717543 316.585234V803.519718c-2.897688 5.959203-5.580354 12.491801-7.925126 19.864011-8.068475 25.311255-3.768019 61.424846 7.925126 102.197265z m-30.717543 35.642588a635.177346 635.177346 0 0 0 18.522679 58.537397c4.064955 0.511959 8.088953 1.197984 12.194864 1.597312v-6.50188c-13.433805-36.584593-23.222462-74.223822-30.717543-112.846012v59.213183z" fill="#9E5A36" p-id="3734"></path>
  <path d="M430.045596 337.892969h163.826894v163.826893H430.045596z" fill="#9A532D" p-id="3735"></path>
  <path d="M430.045596 422.427646v19.157507a926.031517 926.031517 0 0 0 62.295177 60.144949h19.843532c-27.441005-23.519398-55.025358-49.4962-82.138709-79.302456z m113.235102-47.642909c15.983361 30.461563 36.492441 69.564995 50.591792 100.343973v-30.348932c-10.300616-20.898168-23.25318-45.912487-39.082953-76.077114a8245.561155 8245.561155 0 0 1-16.106232-30.819935h-14.682985c6.307335 12.174386 12.819454 24.584273 19.280378 36.902008z m-49.414287-10.812575c4.392609-2.969362 7.658907-8.058235 2.733861-26.079193h-13.515719c2.570034 8.273258 3.041037 12.481561 2.969363 14.529397-2.570034-0.88057-8.314215-4.075194-20.027838-14.529397h-19.137029c31.7517 30.74826 40.885049 30.205584 46.977362 26.079193zM593.87249 386.518838A2313.563395 2313.563395 0 0 1 572.134709 337.892969h-14.171026A2192.618191 2192.618191 0 0 0 593.87249 417.297816v-30.778978zM581.50356 337.892969c3.788497 9.665787 7.914887 19.864011 12.36893 30.400128V337.892969h-12.36893zM430.045596 353.313175v19.75138c44.683785 50.724902 88.067195 97.886569 124.00672 128.655307h20.488601c-39.24678-30.563955-91.12871-87.50404-144.495321-148.406687z" fill="#9E5A36" p-id="3736"></path>
  <path d="M430.045596 337.892969h30.717543v163.826893h-30.717543z" fill="#8A4B28" p-id="3737"></path>
  <path d="M593.87249 582.75274v-16.280298c-5.938725-4.454044-11.928646-8.979762-17.928805-13.556675h-21.399889A2537.596672 2537.596672 0 0 0 593.87249 582.75274z m-92.193584 111.832333c-28.045116-30.973522-50.37677-70.230542-71.63331-115.231741v29.642428c18.338373 36.041917 38.079514 67.936965 62.00848 94.37453 3.88065 4.290217 8.140149 8.764739 12.614671 13.38261h18.307655a621.436365 621.436365 0 0 1-21.297496-22.167827z m-1.535877-90.61675c-0.317415-6.573554 1.515399-11.437165 5.641788-14.898009 0.450524-0.389089 2.385729-1.535877 8.324454-0.255979 16.87417 3.634909 46.035357 21.963043 79.763219 48.718022v-16.198384c-31.710743-24.574034-59.407727-41.478922-77.029357-45.277658-8.365411-1.802096-14.898008-0.778178-19.423727 3.020559-7.239101 6.082073-10.792097 14.918487-10.269898 25.536517 1.392529 28.362531 32.171506 70.660587 79.353652 112.12927h20.263339c-50.192465-41.74514-85.323094-86.316295-86.62347-112.774338z m71.305655 60.462363a6.553076 6.553076 0 0 0 2.866971 8.774978A236.217903 236.217903 0 0 1 593.87249 684.550676V669.13047a234.436285 234.436285 0 0 0-13.679545-7.566755 6.491641 6.491641 0 0 0-8.744261 2.866971z" fill="#9E5A36" p-id="3738"></path>
  <path d="M266.218703 327.653788h491.480681c16.966323 0 30.50252 20.263339 51.195904 40.956723 0 0 30.717543 33.942885 30.717543 40.946484C839.612831 416.970162 808.895288 450.523958 808.895288 450.523958c-20.49884 20.49884-34.229582 40.956723-51.195904 40.956724H266.218703a30.717543 30.717543 0 0 1-30.717543-30.717543V358.37133a30.717543 30.717543 0 0 1 30.717543-30.717542z" fill="#EDEDED" p-id="3739"></path>
  <path d="M409.567235 378.849692a30.717543 30.717543 0 1 0 0 61.435085 30.717543 30.717543 0 0 0 0-61.435085z m102.391808 0a30.717543 30.717543 0 1 0 0 61.435085 30.717543 30.717543 0 0 0 0-61.435085z m102.391809 0a30.717543 30.717543 0 1 0 0 61.435085 30.717543 30.717543 0 0 0 0-61.435085z" fill="#4681A0" p-id="3740"></path>
  <path d="M430.045596 552.915767h30.717543v163.826894h-30.717543z" fill="#8A4B28" p-id="3741"></path>
  <path d="M757.699384 542.676586H266.218703c-16.966323 0-30.50252 20.263339-51.195905 40.956723 0 0-30.717543 33.932645-30.717542 40.936245C184.305256 631.992961 215.022798 665.546756 215.022798 665.546756c20.49884 20.49884 34.229582 40.956723 51.195905 40.956724h491.480681a30.717543 30.717543 0 0 0 30.717543-30.717543V573.394128a30.717543 30.717543 0 0 0-30.717543-30.717542z" fill="#EDEDED" p-id="3742"></path>
  <path d="M409.567235 593.87249a30.717543 30.717543 0 1 0 0 61.435085 30.717543 30.717543 0 0 0 0-61.435085z m102.391808 0a30.717543 30.717543 0 1 0 0 61.435085 30.717543 30.717543 0 0 0 0-61.435085z m102.391809 0a30.717543 30.717543 0 1 0 0 61.435085 30.717543 30.717543 0 0 0 0-61.435085z" fill="#9FA8AC" p-id="3743"></path>
</svg>