<?xml version="1.0" standalone="no" ?>
<!DOCTYPE svg PUBLIC "-//W3C//DTD SVG 1.1//EN" "http://www.w3.org/Graphics/SVG/1.1/DTD/svg11.dtd">
<svg t="1584274426456" class="icon" viewBox="0 0 1024 1024" version="1.1" xmlns="http://www.w3.org/2000/svg" p-id="3390" xmlns:xlink="http://www.w3.org/1999/xlink" width="200" height="200">
  <path d="M511.488 995.328a128.654222 128.654222 0 0 1-57.116444-13.112889L70.769778 791.808a126.833778 126.833778 0 0 1-70.769778-113.777778V311.608889a126.179556 126.179556 0 0 1 15.36-60.103111V248.604444c1.479111-2.901333 3.356444-5.603556 5.518222-8.021333a127.630222 127.630222 0 0 1 49.891556-42.325333L454.371556 13.368889a128.739556 128.739556 0 0 1 112.981333 0l383.601778 190.407111a126.862222 126.862222 0 0 1 72.049777 113.379556v360.874666a126.805333 126.805333 0 0 1-70.769777 115.939556L568.604444 984.32c-17.92 7.964444-37.461333 11.747556-57.116444 11.008z m42.638222-470.897778v370.204445l360.192-178.545778c14.449778-7.253333 23.552-21.987556 23.438222-38.087111v-335.928889L554.097778 524.430222zM85.248 330.666667v347.335111a42.268444 42.268444 0 0 0 23.438222 38.087111l360.192 178.545778V523.576889L85.248 330.666667zM135.537778 260.835556l375.950222 189.952 137.671111-65.564445L286.435556 188.074667 135.537778 260.864z m245.105778-118.471112l363.576888 197.973334 150.897778-71.480889-365.283555-180.224a42.922667 42.922667 0 0 0-37.518223 0l-111.672888 53.731555z" fill="#000000" p-id="3391"></path>
</svg>