<?xml version="1.0" standalone="no"?>
<!DOCTYPE svg PUBLIC "-//W3C//DTD SVG 1.1//EN" "http://www.w3.org/Graphics/SVG/1.1/DTD/svg11.dtd">
<svg t="1586315789764" class="icon" viewBox="0 0 1024 1024" version="1.1"
  xmlns="http://www.w3.org/2000/svg" p-id="8157"
  xmlns:xlink="http://www.w3.org/1999/xlink" width="200" height="200">
  <path d="M 971.11 91.954 L 41.202 450.786 c -52.4044 20.2215 -51.0917 49.6092 2.67201 65.5621 l 224.686 66.6679 l 91.3545 271.827 c 11.9601 35.5874 43.2046 43.0918 69.9307 16.6159 l 117.856 -116.75 l 232.647 170.484 c 30.2258 22.1493 61.3018 10.4927 69.4609 -26.2714 l 169.769 -764.979 C 1027.71 97.285 1006.04 78.475 971.11 91.954 Z M 829.6 264.913 l -396.652 353.405 c -7.13236 6.35447 -13.5869 18.9472 -14.5776 28.2702 l -17.5111 164.635 c -1.96623 18.4867 -8.34047 19.2495 -14.2194 1.53019 l -76.7515 -231.355 c -3.00224 -9.05092 1.11043 -20.1449 9.12766 -24.9529 l 503.028 -301.717 C 854.101 235.503 857.514 240.044 829.6 264.913 Z" fill="#2c2c2c" p-id="8158"></path>
</svg>