<?xml version="1.0" standalone="no" ?>
<!DOCTYPE svg PUBLIC "-//W3C//DTD SVG 1.1//EN" "http://www.w3.org/Graphics/SVG/1.1/DTD/svg11.dtd">
<svg t="1584260006427" class="icon" viewBox="0 0 1024 1024" version="1.1" xmlns="http://www.w3.org/2000/svg" p-id="3263" xmlns:xlink="http://www.w3.org/1999/xlink" width="200" height="200">
  <path d="M634.424889 994.133333h-244.849778a267.406222 267.406222 0 0 1-231.310222-134.485333l-122.595556-213.873778a270.961778 270.961778 0 0 1 0-268.686222l122.595556-213.873778a267.576889 267.576889 0 0 1 231.310222-134.485333h244.707556a267.406222 267.406222 0 0 1 231.310222 134.485333l122.595555 213.873778a270.961778 270.961778 0 0 1 0 268.686222l-122.595555 213.873778a267.178667 267.178667 0 0 1-231.168 134.485333zM231.594667 817.038222a182.755556 182.755556 0 0 0 157.980444 91.875556h244.707556a182.584889 182.584889 0 0 0 157.980444-91.875556l122.567111-213.873778a185.400889 185.400889 0 0 0 0-183.608888l-122.595555-213.902223A182.755556 182.755556 0 0 0 634.311111 113.777778h-244.707555a182.584889 182.584889 0 0 0-157.980445 91.875555l-122.567111 213.902223a185.400889 185.400889 0 0 0 0 183.608888l122.595556 213.902223zM512 729.998222c-119.751111 0-217.201778-98.133333-217.201778-218.709333S392.248889 292.579556 512 292.579556s217.201778 98.133333 217.201778 218.709333S631.751111 729.998222 512 729.998222z m0-352.199111c-73.073778 0-132.579556 59.932444-132.579556 133.489778 0 73.557333 59.505778 133.489778 132.579556 133.489778 73.073778 0 132.579556-59.932444 132.579556-133.489778 0-73.557333-59.505778-133.489778-132.579556-133.489778z" fill="#000000" p-id="3264"></path>
</svg>