<?xml version="1.0" standalone="no"?>
<!DOCTYPE svg PUBLIC "-//W3C//DTD SVG 1.1//EN" "http://www.w3.org/Graphics/SVG/1.1/DTD/svg11.dtd">
<svg t="1606309128333" class="icon" viewBox="0 0 1024 1024" version="1.1"
  xmlns="http://www.w3.org/2000/svg" p-id="3628"
  xmlns:xlink="http://www.w3.org/1999/xlink" width="200" height="200">
  <path d="M512 0c282.76736 0 512 229.23264 512 512s-229.23264 512-512 512S0 794.76736 0 512 229.23264 0 512 0z" fill="#E2574C" p-id="3629"></path>
  <path d="M757.54496 392.07936a18.91328 18.91328 0 0 0-17.12128 5.14048L594.78016 545.7408c-14.68416 14.70464-64.0512 3.96288-97.28-9.00096-12.98432-33.2288-23.71584-82.60608-9.07264-97.28l149.248-144.93696a18.7392 18.7392 0 0 0 5.14048-17.08032 18.86208 18.86208 0 0 0-11.47904-13.6704 250.18368 250.18368 0 0 0-269.5168 55.52128 249.12896 249.12896 0 0 0-67.25632 231.40352c-2.3552 40.3456-39.03488 87.62368-57.99936 106.9056L90.8288 803.0208a514.4576 514.4576 0 0 0 139.54048 136.50944l138.82368-138.56768c19.46624-19.17952 72.0384-55.33696 112.08704-59.48416 6.0416 0.38912 18.54464 1.21856 21.31968 1.83296l-0.02048-0.23552c78.09024 11.34592 156.96896-14.15168 213.07392-70.18496a249.7536 249.7536 0 0 0 55.58272-269.30176 18.83136 18.83136 0 0 0-13.69088-11.50976z" fill="#CD4F45" p-id="3630"></path>
  <path d="M757.54496 381.83936a18.91328 18.91328 0 0 0-17.12128 5.14048L594.78016 535.5008c-14.68416 14.70464-64.0512 3.96288-97.28-9.00096-12.98432-33.2288-23.71584-82.60608-9.07264-97.28l149.248-144.93696a18.7392 18.7392 0 0 0 5.14048-17.08032 18.86208 18.86208 0 0 0-11.47904-13.6704 250.18368 250.18368 0 0 0-269.5168 55.52128 249.12896 249.12896 0 0 0-67.25632 231.40352c-2.3552 40.3456-39.03488 87.62368-57.99936 106.9056L86.60992 796.9792a514.7136 514.7136 0 0 0 137.5744 138.47552l144.9984-144.7424c19.46624-19.17952 72.0384-55.33696 112.08704-59.48416 6.0416 0.38912 18.54464 1.21856 21.31968 1.83296l-0.02048-0.23552c78.09024 11.34592 156.96896-14.15168 213.07392-70.18496a249.7536 249.7536 0 0 0 55.58272-269.30176 18.80064 18.80064 0 0 0-13.68064-11.49952z" fill="#EDEDED" p-id="3631"></path>
  <path d="M787.06688 456.25344c1.30048 11.12064 1.91488 22.272 1.7408 33.3824a249.66144 249.66144 0 0 0-17.58208-86.04672 18.80064 18.80064 0 0 0-30.81216-6.35904L594.78016 545.7408c-14.68416 14.70464-64.0512 3.96288-97.28-9.00096-1.13664-2.90816-2.2528-5.94944-3.34848-9.08288L148.89984 872.91904a513.8432 513.8432 0 0 0 75.29472 62.53568l144.9984-144.7424c19.46624-19.17952 72.0384-55.33696 112.08704-59.48416 6.0416 0.38912 18.54464 1.21856 21.31968 1.83296l-0.02048-0.23552c78.09024 11.34592 156.96896-14.15168 213.07392-70.18496a249.57952 249.57952 0 0 0 71.41376-206.3872z m-8.88832-42.81344l-1.49504-4.7616 1.49504 4.7616z m8.32512 38.18496z m-3.28704-18.57536l-1.78176-7.72096 1.78176 7.72096z" fill="#E1E1E1" p-id="3632"></path>
  <path d="M361.82016 319.29344a250.18368 250.18368 0 0 1 269.5168-55.52128c5.46816 2.18112 9.53344 6.8608 11.08992 12.53376 0.8704-2.9184 1.03424-6.03136 0.38912-9.10336a18.86208 18.86208 0 0 0-11.47904-13.6704 250.18368 250.18368 0 0 0-269.5168 55.52128 248.91392 248.91392 0 0 0-73.22624 179.3536 248.9856 248.9856 0 0 1 73.22624-169.1136zM236.56448 647.36256L86.60992 796.9792l4.20864 6.0416 145.73568-145.41824c18.95424-19.29216 55.63392-66.56 57.99936-106.9056l-0.70656-3.69664c-5.57056 38.78912-39.34208 82.10432-57.28256 100.36224z" fill="#F4F4F4" p-id="3633"></path>
  <path d="M294.00064 693.42208L132.1472 855.26528a515.44064 515.44064 0 0 0 36.23936 36.28032l161.87392-161.87392a25.64096 25.64096 0 1 0-36.25984-36.2496z" fill="#CCD0D2" p-id="3634"></path>
  <path d="M294.00064 693.42208L132.1472 855.26528l4.95616 5.29408 156.89728-156.89728a25.64096 25.64096 0 0 1 43.23328 13.01504 25.64096 25.64096 0 0 0-43.23328-23.25504z" fill="#B8BCBE" p-id="3635"></path>
</svg>