<?xml version="1.0" standalone="no"?>
<!DOCTYPE svg PUBLIC "-//W3C//DTD SVG 1.1//EN" "http://www.w3.org/Graphics/SVG/1.1/DTD/svg11.dtd">
<svg t="1586699249468" class="icon" viewBox="0 0 1024 1024" version="1.1"
  xmlns="http://www.w3.org/2000/svg" p-id="3335"
  xmlns:xlink="http://www.w3.org/1999/xlink" width="200" height="200">
  <path d="M512 0c282.76736 0 512 229.23264 512 512s-229.23264 512-512 512S0 794.76736 0 512 229.23264 0 512 0z" fill="#91D8F0" p-id="3336"></path>
  <path d="M1007.43168 641.536c-2.65216-3.97312-3.9936-6.656-3.9936-6.656s-21.4016 40.91904-61.58336 40.96c-40.51968-0.04096-60.90752-40.96-60.90752-40.96s-20.38784 40.96-61.67552 40.96c-41.18528 0-61.46048-40.96-61.46048-40.96s-21.4016 40.91904-61.58336 40.96c-40.51968-0.04096-60.90752-40.96-60.90752-40.96s-20.38784 40.96-61.67552 40.96c-41.18528 0-61.46048-40.96-61.46048-40.96s-21.4016 40.91904-61.58336 40.96c-40.51968-0.04096-60.90752-40.96-60.90752-40.96s-20.38784 40.96-61.67552 40.96c-41.18528 0-61.46048-40.96-61.46048-40.96s-21.4016 40.91904-61.58336 40.96c-40.51968-0.04096-60.90752-40.96-60.90752-40.96s-20.38784 40.96-61.67552 40.96c-41.18528 0-61.46048-40.96-61.46048-40.96s-1.47456 2.77504-4.3008 6.85056C46.24384 755.11808 113.72544 853.18656 204.78976 921.6h614.42048c91.11552-68.4544 158.62784-166.59456 188.22144-280.064z" fill="#2295BC" p-id="3337"></path>
  <path d="M481.28 256h61.44a20.48 20.48 0 0 1 20.48 20.48v40.96a20.48 20.48 0 0 1-20.48 20.48h-61.44a20.48 20.48 0 0 1-20.48-20.48v-40.96a20.48 20.48 0 0 1 20.48-20.48z" fill="#324D5B" p-id="3338"></path>
  <path d="M358.4 307.2h307.2a20.48 20.48 0 0 1 20.48 20.48v215.04a20.48 20.48 0 0 1-20.48 20.48H358.4a20.48 20.48 0 0 1-20.48-20.48V327.68a20.48 20.48 0 0 1 20.48-20.48z" fill="#EDEDED" p-id="3339"></path>
  <path d="M512 307.2H358.4a20.48 20.48 0 0 0-20.48 20.48v215.04a20.48 20.48 0 0 0 20.48 20.48h153.6V307.2z m174.08 227.90144l-174.39744-60.34432L337.92 534.87616v-27.91424l173.69088-60.09856 0.07168 13.93664 0.07168-13.9264L686.08 507.1872v27.91424z" fill="#E1E1E1" p-id="3340"></path>
  <path d="M424.96 368.64a25.6 25.6 0 1 0 0 51.2 25.6 25.6 0 0 0 0-51.2z m174.08 0a25.6 25.6 0 1 0 0 51.2 25.6 25.6 0 0 0 0-51.2z" fill="#475F6C" p-id="3341"></path>
  <path d="M276.48 542.72l235.30496-81.92L747.52 542.72c10.04544 3.16416 20.48 9.17504 20.48 20.48l-51.2 266.24a20.48 20.48 0 0 1-20.48 20.48H327.68a20.48 20.48 0 0 1-20.48-20.48l-51.2-266.24c0-11.30496 9.80992-16.0256 20.48-20.48z" fill="#FFFFFF" p-id="3342"></path>
  <path d="M512 474.86976v-27.91424l-0.24576-0.08192-0.07168 13.9264-0.07168-13.9264L337.92 506.96192v27.91424l173.76256-60.11904z" fill="#D6D6D6" p-id="3343"></path>
  <path d="M276.48 542.72l235.30496-81.92 0.21504 0.08192V849.92H327.68a20.48 20.48 0 0 1-20.48-20.48l-51.2-266.24c0-11.30496 9.80992-16.0256 20.48-20.48z" fill="#F2F2F2" p-id="3344"></path>
  <path d="M753.19296 640.23552l-241.5104-83.5584-240.90624 83.34336-5.02784-26.1632 245.87264-85.07392 0.06144 13.93664 0.07168-13.9264 246.46656 85.26848-5.02784 26.17344z" fill="#E2574C" p-id="3345"></path>
  <path d="M655.36 153.6h-51.2a15.36 15.36 0 1 0 0 30.73024A20.48 20.48 0 0 1 604.16 225.28h-61.44a15.36 15.36 0 0 0 0 30.72h-61.44a15.36 15.36 0 0 0 0-30.72h-30.72a20.48 20.48 0 0 1 0-40.94976h81.92v-0.03072a15.33952 15.33952 0 0 0 0-30.65856V153.6h-20.48a20.48 20.48 0 0 1 0-40.96h143.36a20.48 20.48 0 0 1 0 40.96z" fill="#B2E4F5" p-id="3346"></path>
  <path d="M599.04 368.64a25.6 25.6 0 1 1 0 51.2 25.6 25.6 0 0 1 0-51.2m-174.08 0a25.6 25.6 0 1 1 0 51.2 25.6 25.6 0 0 1 0-51.2m174.08-15.36c-22.58944 0-40.96 18.37056-40.96 40.96s18.37056 40.96 40.96 40.96 40.96-18.37056 40.96-40.96-18.37056-40.96-40.96-40.96z m-174.08 0c-22.58944 0-40.96 18.37056-40.96 40.96s18.37056 40.96 40.96 40.96 40.96-18.37056 40.96-40.96-18.37056-40.96-40.96-40.96z" fill="#FFFFFF" p-id="3347"></path>
  <path d="M949.77024 777.65632c-2.56 0.3584-5.18144 0.58368-7.90528 0.58368-40.51968-0.04096-60.90752-40.96-60.90752-40.96s-20.38784 40.96-61.67552 40.96c-41.18528 0-61.46048-40.96-61.46048-40.96s-21.4016 40.91904-61.58336 40.96c-40.51968-0.04096-60.90752-40.96-60.90752-40.96s-20.38784 40.96-61.67552 40.96c-41.18528 0-61.46048-40.96-61.46048-40.96s-21.4016 40.91904-61.58336 40.96c-40.51968-0.04096-60.90752-40.96-60.90752-40.96s-20.38784 40.96-61.67552 40.96c-41.18528 0-61.46048-40.96-61.46048-40.96s-21.4016 40.91904-61.58336 40.96c-40.51968-0.04096-60.90752-40.96-60.90752-40.96s-20.38784 40.96-61.67552 40.96c-2.816 0-5.5296-0.22528-8.15104-0.58368C164.05504 925.34784 326.5024 1024 512 1024s347.94496-98.65216 437.77024-246.34368z" fill="#1E85A7" p-id="3348"></path>
  <path d="M819.27168 911.36c-41.18528 0-61.46048-40.96-61.46048-40.96s-21.4016 40.91904-61.58336 40.96c-40.51968-0.04096-60.90752-40.96-60.90752-40.96s-20.38784 40.96-61.67552 40.96c-41.18528 0-61.46048-40.96-61.46048-40.96s-21.4016 40.91904-61.58336 40.96c-40.51968-0.04096-60.90752-40.96-60.90752-40.96s-20.38784 40.96-61.67552 40.96c-41.18528 0-61.46048-40.96-61.46048-40.96s-21.4016 40.91904-61.58336 40.96a57.9584 57.9584 0 0 1-16.27136-2.4064C276.85888 980.8384 389.376 1024 512 1024c122.46016 0 234.83392-43.04896 322.93888-114.75968a59.648 59.648 0 0 1-15.6672 2.11968z" fill="#1B7492" p-id="3349"></path>
</svg>