<?xml version="1.0" standalone="no"?>
<!DOCTYPE svg PUBLIC "-//W3C//DTD SVG 1.1//EN" "http://www.w3.org/Graphics/SVG/1.1/DTD/svg11.dtd">
<svg t="1606375371467" class="icon" viewBox="0 0 1024 1024" version="1.1"
  xmlns="http://www.w3.org/2000/svg" p-id="9159"
  xmlns:xlink="http://www.w3.org/1999/xlink" width="200" height="200">
  <path d="M61.858 330.254h897.972V950.3H61.858z" fill="#FFCE54" p-id="9160"></path>
  <path d="M649.37 541.876h186.934v392.832h-186.934z" fill="#4FC2E9" p-id="9161"></path>
  <path d="M71.012 73.7h878.506v129.622H71.012z" fill="#E6E9ED" p-id="9162"></path>
  <path d="M168.76 544.06h384.864v256.588H168.76z" fill="#4FC2E9" p-id="9163"></path>
  <path d="M147.384 522.688v299.334h427.614V522.688H147.384z m384.832 256.554H190.134V565.436h342.082v213.806zM617.746 522.688V950.3h256.556V522.688H617.746z m213.806 384.862h-171.058V565.436h171.058v342.114z" fill="#F5F7FA" p-id="9164"></path>
  <path d="M489.312 672.34a21.264 21.264 0 0 0-15.124 6.282l-42.748 42.746a21.324 21.324 0 0 0-6.282 15.124c0 11.812 9.594 21.376 21.406 21.376 5.876 0 11.218-2.376 15.094-6.25l42.78-42.78a21.356 21.356 0 0 0 6.25-15.094c0-11.812-9.564-21.404-21.376-21.404zM504.438 623.34a21.43 21.43 0 0 0 6.25-15.124 21.364 21.364 0 0 0-21.376-21.374 21.246 21.246 0 0 0-15.124 6.25l-128.278 128.276a21.366 21.366 0 0 0 15.094 36.5c5.938 0 11.25-2.376 15.124-6.25l128.31-128.278z" fill="#3BAFDA" p-id="9165"></path>
  <path d="M836.302 715.12H639.12c-11.812 0-21.376 9.56-21.376 21.374s9.562 21.376 21.376 21.376h197.182c11.812 0 21.376-9.562 21.376-21.376s-9.562-21.374-21.376-21.374z" fill="#F5F7FA" p-id="9166"></path>
  <path d="M901.8 479.938c67.466 0 122.184-54.716 122.184-122.184 0-6.5-0.532-12.876-1.5-19.092l-0.688-3.844a36.924 36.924 0 0 1-0.312-1.782l-70.81-173.808h-175.932l29.31 271.836 4.124 5.188c22.44 26.686 56.032 43.686 93.624 43.686z" fill="#DA4453" p-id="9167"></path>
  <path d="M598.81 159.228l9.748 271.836c22.312 29.656 57.81 48.874 97.748 48.874 39.998 0 75.434-19.218 97.746-48.874L774.742 159.228h-175.932z" fill="#E6E9ED" p-id="9168"></path>
  <path d="M122.168 479.938c-67.466 0-122.152-54.716-122.152-122.184 0-6.5 0.498-12.876 1.498-19.092H1.482l0.718-3.844c0.094-0.594 0.188-1.188 0.312-1.782l70.81-173.808h175.902L219.88 431.064l-4.094 5.188c-22.402 26.686-56.026 43.686-93.618 43.686z" fill="#DA4453" p-id="9169"></path>
  <path d="M425.158 159.228l-9.782 271.836c-22.28 29.656-57.748 48.874-97.746 48.874-39.938 0-75.436-19.218-97.748-48.874l29.344-271.836h175.932z" fill="#E6E9ED" p-id="9170"></path>
  <path d="M422.876 159.228l-9.75 271.836c22.25 29.656 57.75 48.874 97.716 48.874s75.466-19.218 97.714-48.874l-9.748-271.836h-175.932z" fill="#DA4453" p-id="9171"></path>
  <path d="M2.388 333.692l-0.188 1.124-0.718 3.844h0.032a120.154 120.154 0 0 0-1.498 19.092c0 67.466 54.686 122.184 122.152 122.184 37.592 0 71.216-17 93.622-43.686l4.094-5.188 10.532-97.372H2.388z" fill="#ED5564" p-id="9172"></path>
  <path d="M230.414 333.692l-10.532 97.372c22.312 29.656 57.81 48.874 97.748 48.874 39.998 0 75.466-19.218 97.746-48.874l3.5-97.372h-188.462z" fill="#F5F7FA" p-id="9173"></path>
  <path d="M416.626 333.692l-3.5 97.372c22.25 29.656 57.75 48.874 97.716 48.874s75.466-19.218 97.714-48.874l-3.498-97.372h-188.432z" fill="#ED5564" p-id="9174"></path>
  <path d="M605.06 333.692l3.498 97.372c22.312 29.656 57.81 48.874 97.748 48.874 39.998 0 75.434-19.218 97.746-48.874l-10.5-97.372H605.06z" fill="#F5F7FA" p-id="9175"></path>
  <path d="M1022.484 338.662l-0.688-3.844c-0.062-0.376-0.156-0.75-0.218-1.124H793.552l10.5 97.372 4.124 5.188c22.438 26.686 56.032 43.686 93.624 43.686 67.466 0 122.184-54.716 122.184-122.184a123.76 123.76 0 0 0-1.5-19.094z" fill="#ED5564" p-id="9176"></path>
</svg>