<?xml version="1.0" standalone="no" ?>
<!DOCTYPE svg PUBLIC "-//W3C//DTD SVG 1.1//EN" "http://www.w3.org/Graphics/SVG/1.1/DTD/svg11.dtd">
<svg t="1584259985471" class="icon" viewBox="0 0 1024 1024" version="1.1" xmlns="http://www.w3.org/2000/svg" p-id="3134" xmlns:xlink="http://www.w3.org/1999/xlink" width="200" height="200">
  <path d="M512 104.106667c-149.674667 0-287.943111 77.653333-362.780444 203.776a398.08 398.08 0 0 0 0 407.608889c74.808889 126.094222 213.105778 203.776 362.780444 203.776 231.367111 0 418.901333-182.499556 418.901333-407.608889C930.901333 286.606222 743.367111 104.106667 512 104.106667zM0 511.658667C0 236.544 229.262222 13.511111 512 13.511111S1024 236.544 1024 511.715556c0 275.114667-229.262222 498.147556-512 498.147555S0 786.801778 0 511.715556z" fill="#000000" p-id="3135"></path>
  <path d="M526.222222 685.340444c-106.012444 0-180.167111 34.929778-226.076444 66.816a45.767111 45.767111 0 0 1-46.08 4.295112 45.966222 45.966222 0 0 1-6.200889-79.843556c58.794667-40.931556 150.869333-83.228444 278.357333-83.228444 127.488 0 219.591111 42.353778 278.357334 83.228444a46.023111 46.023111 0 0 1-6.200889 79.843556 45.767111 45.767111 0 0 1-46.08-4.295112c-45.852444-31.857778-120.007111-66.844444-226.076445-66.844444z m0-229.888a91.847111 91.847111 0 0 1-91.704889-91.960888A91.847111 91.847111 0 0 1 526.222222 271.530667a91.847111 91.847111 0 0 1 91.704889 91.960889 91.847111 91.847111 0 0 1-91.704889 91.960888z m-183.438222-91.960888c0 101.546667 82.119111 183.921778 183.438222 183.921777s183.438222-82.346667 183.438222-183.921777-82.119111-183.921778-183.438222-183.921778-183.438222 82.346667-183.438222 183.921778z" fill="#000000" p-id="3136"></path>
</svg>