<?xml version="1.0" standalone="no"?>
<!DOCTYPE svg PUBLIC "-//W3C//DTD SVG 1.1//EN" "http://www.w3.org/Graphics/SVG/1.1/DTD/svg11.dtd">
<svg t="1586699518082" class="icon" viewBox="0 0 1024 1024" version="1.1"
  xmlns="http://www.w3.org/2000/svg" p-id="3639"
  xmlns:xlink="http://www.w3.org/1999/xlink" width="200" height="200">
  <path d="M512 0c282.76736 0 512 229.23264 512 512s-229.23264 512-512 512S0 794.76736 0 512 229.23264 0 512 0z" fill="#3DB39E" p-id="3640"></path>
  <path d="M513.93536 429.47584a20.3776 20.3776 0 0 1-24.94464-14.34624l-68.5056-254.74048a20.2752 20.2752 0 0 1 14.39744-24.85248l285.6448-76.25728a513.8432 513.8432 0 0 1 246.46656 249.2416L513.93536 429.47584zM286.72 727.04c-30.83264 0-59.48416-9.17504-83.53792-24.81152l-35.70688 35.70688a32.23552 32.23552 0 0 1-45.57824-45.57824l35.7888-35.79904A152.64768 152.64768 0 0 1 133.12 573.44c0-84.82816 68.77184-153.6 153.6-153.6s153.6 68.77184 153.6 153.6-68.77184 153.6-153.6 153.6z" fill="#37A18E" p-id="3641"></path>
  <path d="M524.17536 419.23584a20.3776 20.3776 0 0 1-24.94464-14.34624l-68.5056-254.74048a20.2752 20.2752 0 0 1 14.39744-24.85248l285.6448-76.25728a513.8432 513.8432 0 0 1 246.46656 249.2416L524.17536 419.23584z" fill="#324D5B" p-id="3642"></path>
  <path d="M317.44 696.32c-30.83264 0-59.48416-9.17504-83.53792-24.81152l-35.70688 35.70688a32.23552 32.23552 0 0 1-45.57824-45.57824l35.7888-35.79904A152.64768 152.64768 0 0 1 163.84 542.72c0-84.82816 68.77184-153.6 153.6-153.6s153.6 68.77184 153.6 153.6-68.77184 153.6-153.6 153.6z" fill="#F2F1EF" p-id="3643"></path>
  <path d="M317.44 430.08c62.208 0 112.64 50.432 112.64 112.64s-50.432 112.64-112.64 112.64-112.64-50.432-112.64-112.64 50.432-112.64 112.64-112.64z" fill="#9B481A" p-id="3644"></path>
  <path d="M644.1472 1006.70464L504.68864 765.40928a20.65408 20.65408 0 0 1 7.5776-28.25216l375.3472-212.14208a20.72576 20.72576 0 0 1 28.29312 7.5776l81.75616 141.44512c-54.09792 162.23232-187.0848 288.3072-353.51552 332.66688z" fill="#E4E7E7" p-id="3645"></path>
  <path d="M996.58752 672.18432l-10.4448-18.08384-409.50784 235.78624 10.45504 18.09408zM534.82496 817.54112l10.4448 18.08384 409.4976-235.79648-10.4448-18.0736z m395.42784-10.72128a514.6624 514.6624 0 0 0 24.53504-38.22592L618.45504 962.24256l10.45504 18.09408 301.34272-173.5168z" fill="#D7D8D8" p-id="3646"></path>
  <path d="M541.77792 693.6064c-5.00736-8.47872-15.08352-11.95008-22.50752-7.76192s-9.39008 14.46912-4.39296 22.94784l23.28576 39.46496c5.00736 8.46848 15.09376 11.93984 22.50752 7.75168 7.43424-4.18816 9.40032-14.46912 4.39296-22.94784l-23.28576-39.45472z m53.80096-30.37184c-5.00736-8.47872-15.08352-11.95008-22.50752-7.75168-7.43424 4.17792-9.40032 14.45888-4.39296 22.9376l23.28576 39.46496c5.00736 8.46848 15.08352 11.93984 22.50752 7.75168 7.43424-4.1984 9.40032-14.46912 4.39296-22.9376l-23.28576-39.46496z m53.80096-30.38208c-5.00736-8.47872-15.09376-11.95008-22.50752-7.75168-7.43424 4.18816-9.40032 14.45888-4.39296 22.9376l23.28576 39.46496c5.00736 8.47872 15.08352 11.93984 22.50752 7.75168s9.40032-14.46912 4.39296-22.9376l-23.28576-39.46496z m53.80096-30.38208c-5.00736-8.46848-15.09376-11.95008-22.50752-7.75168-7.43424 4.18816-9.40032 14.45888-4.39296 22.9376l23.28576 39.46496c4.99712 8.47872 15.08352 11.93984 22.50752 7.75168s9.39008-14.46912 4.39296-22.9376l-23.28576-39.46496z m53.80096-30.38208c-5.00736-8.46848-15.09376-11.95008-22.51776-7.75168-7.424 4.1984-9.39008 14.45888-4.38272 22.9376l23.28576 39.46496c4.99712 8.47872 15.08352 11.95008 22.50752 7.76192 7.43424-4.1984 9.39008-14.46912 4.39296-22.9376l-23.28576-39.4752z m53.80096-30.37184c-5.00736-8.47872-15.09376-11.96032-22.51776-7.76192-7.424 4.1984-9.39008 14.45888-4.38272 22.9376l23.28576 39.46496c4.99712 8.47872 15.08352 11.95008 22.50752 7.76192 7.43424-4.1984 9.39008-14.46912 4.39296-22.9376l-23.28576-39.46496z m77.08672 9.08288l-23.296-39.46496c-4.99712-8.47872-15.08352-11.95008-22.50752-7.76192-7.424 4.1984-9.39008 14.46912-4.38272 22.9376l23.28576 39.46496c4.99712 8.47872 15.08352 11.95008 22.50752 7.76192 7.43424-4.1984 9.39008-14.46912 4.39296-22.9376z" fill="#CCD0D2" p-id="3647"></path>
  <path d="M296.96 460.8c62.208 0 112.64 50.432 112.64 112.64 0 16.4352-3.60448 32.01024-9.9328 46.10048A112.16896 112.16896 0 0 0 430.08 542.72c0-62.208-50.432-112.64-112.64-112.64-45.7728 0-85.08416 27.3408-102.7072 66.54976A112.2304 112.2304 0 0 1 296.96 460.8z" fill="#8B4117" p-id="3648"></path>
  <path d="M520.77568 755.16928a20.59264 20.59264 0 0 1 2.95936-24.49408l-11.4688 6.48192a20.65408 20.65408 0 0 0-7.5776 28.25216L644.1472 1006.6944c6.57408-1.75104 13.0048-3.85024 19.46624-5.85728L520.77568 755.16928z" fill="#D0D3D3" p-id="3649"></path>
  <path d="M561.9712 826.0096l-10.50624-18.06336-16.64 9.59488 10.4448 18.08384z m84.00896 144.4864l-10.496-18.05312-17.02912 9.79968 10.45504 18.08384z m-42.00448-72.23296l-10.496-18.06336-16.8448 9.68704 10.45504 18.09408z" fill="#B9BCBE" p-id="3650"></path>
  <path d="M672.6656 672.3072l-1.49504-2.53952-26.74688 15.44192 1.35168 2.29376c4.79232 8.11008 14.1824 11.54048 21.49376 8.18176l2.07872-1.19808c6.48192-4.56704 8.06912-14.15168 3.31776-22.17984z m-127.1296 83.23072c4.83328 2.72384 10.496 3.09248 15.14496 0.47104 7.43424-4.18816 9.40032-14.46912 4.39296-22.94784l-0.90112-1.51552-24.36096 14.06976 5.72416 9.92256z m46.4384-37.66272c5.00736 8.46848 15.08352 11.93984 22.50752 7.75168 7.43424-4.1984 9.40032-14.46912 4.39296-22.9376l-1.19808-2.02752-26.74688 15.44192 1.04448 1.77152z m295.89504-167.07584l-2.7136-4.57728-26.73664 15.44192 2.54976 4.32128c3.35872 5.70368 9.00096 9.0624 14.60224 9.43104l13.4656-7.7824c2.34496-4.90496 2.12992-11.24352-1.16736-16.83456z m-161.40288 91.12576l-1.80224-3.05152-26.74688 15.44192 1.64864 2.79552c4.17792 7.08608 11.88864 10.58816 18.64704 9.14432l7.168-4.13696c4.53632-5.0176 5.2224-13.19936 1.08544-20.19328z m107.60192-60.74368l-2.39616-4.06528-26.74688 15.44192 2.2528 3.80928c3.584 6.07232 9.75872 9.51296 15.70816 9.472l11.83744-6.83008c2.87744-5.0176 2.87744-11.84768-0.65536-17.82784z m-53.80096 30.38208l-2.0992-3.57376-26.74688 15.45216 1.9456 3.29728c3.82976 6.49216 10.62912 10.01472 16.93696 9.44128l10.05568-5.80608c3.49184-5.05856 3.66592-12.4416-0.09216-18.81088z" fill="#B7BBBD" p-id="3651"></path>
  <path d="M569.0368 3.23584c-19.3024 35.16416-38.52288 68.9152-16.26112 109.5168l19.87584-12.0832c-18.35008-33.41312-0.63488-61.11232 17.79712-94.68928A522.3424 522.3424 0 0 0 569.0368 3.23584z" fill="#324D5B" p-id="3652"></path>
  <path d="M741.64224 226.18112c1.4848 5.55008 7.168 8.84736 12.70784 7.36256l30.07488-8.0896c5.53984-1.4848 8.81664-7.19872 7.34208-12.7488l-8.05888-30.17728a10.37312 10.37312 0 0 0-12.70784-7.36256l-30.07488 8.0896a10.43456 10.43456 0 0 0-7.34208 12.75904l8.05888 30.16704z m-131.75808-50.81088l-8.05888-30.17728a10.37312 10.37312 0 0 0-12.70784-7.36256l-30.07488 8.07936a10.43456 10.43456 0 0 0-7.34208 12.75904l8.05888 30.16704c1.4848 5.56032 7.168 8.84736 12.70784 7.36256l30.07488-8.07936c5.53984-1.4848 8.81664-7.19872 7.34208-12.7488z m160.38912-43.12064l-8.05888-30.17728a10.37312 10.37312 0 0 0-12.70784-7.36256l-30.07488 8.0896a10.41408 10.41408 0 0 0-7.34208 12.7488l8.05888 30.17728c1.4848 5.55008 7.168 8.84736 12.70784 7.36256l30.07488-8.07936c5.53984-1.49504 8.81664-7.20896 7.34208-12.75904z m131.75808 50.81088c1.08544 4.11648 4.49536 6.9632 8.43776 7.56736a495.95392 495.95392 0 0 0-9.43104-11.29472l0.99328 3.72736z m-50.8416-29.45024l-30.08512 8.0896c-5.5296 1.4848-8.81664 7.19872-7.34208 12.7488l8.05888 30.17728c1.49504 5.55008 7.17824 8.84736 12.70784 7.36256l30.08512-8.0896c5.5296-1.49504 8.81664-7.19872 7.33184-12.7488l-8.04864-30.17728a10.37312 10.37312 0 0 0-12.70784-7.36256z m-371.63008 56.79104c1.49504 5.55008 7.17824 8.84736 12.70784 7.36256l30.08512-8.0896a10.4448 10.4448 0 0 0 7.34208-12.75904l-8.05888-30.17728a10.38336 10.38336 0 0 0-12.70784-7.36256l-30.08512 8.07936a10.4448 10.4448 0 0 0-7.34208 12.75904l8.05888 30.18752z m312.7296-116.41856l8.04864 30.17728c1.49504 5.55008 7.17824 8.84736 12.70784 7.36256l30.08512-8.07936 1.32096-0.65536a514.6112 514.6112 0 0 0-50.1248-37.85728 10.21952 10.21952 0 0 0-2.03776 9.05216zM543.83616 290.14016c5.5296-1.4848 8.81664-7.19872 7.33184-12.7488l-8.04864-30.16704a10.3936 10.3936 0 0 0-12.71808-7.3728l-30.07488 8.0896c-5.5296 1.49504-8.81664 7.19872-7.34208 12.7488l8.05888 30.17728c1.49504 5.55008 7.17824 8.8576 12.70784 7.36256l30.08512-8.0896z m389.70368-29.30688l-8.05888-30.16704a10.37312 10.37312 0 0 0-12.70784-7.36256L682.20928 285.2864a10.43456 10.43456 0 0 0-7.34208 12.75904l8.05888 30.17728c1.4848 5.55008 7.168 8.84736 12.70784 7.36256l230.56384-61.98272a10.4448 10.4448 0 0 0 7.34208-12.76928z m-272.09728-13.09696c1.4848 5.56032 7.17824 8.8576 12.70784 7.3728l30.07488-8.0896c5.53984-1.4848 8.82688-7.19872 7.34208-12.7488l-8.05888-30.17728a10.36288 10.36288 0 0 0-12.6976-7.36256l-30.08512 8.0896c-5.5296 1.4848-8.81664 7.18848-7.34208 12.7488l8.05888 30.16704z m-109.54752 72.58112l-30.07488 8.07936a10.43456 10.43456 0 0 0-7.34208 12.75904l8.05888 30.16704c1.4848 5.55008 7.168 8.84736 12.70784 7.36256l30.07488-8.07936c5.53984-1.49504 8.81664-7.19872 7.34208-12.75904L564.60288 327.68a10.37312 10.37312 0 0 0-12.70784-7.36256z m29.35808-51.01568c1.4848 5.55008 7.168 8.84736 12.70784 7.36256l30.07488-8.0896c5.53984-1.49504 8.81664-7.19872 7.34208-12.7488l-8.05888-30.17728a10.37312 10.37312 0 0 0-12.70784-7.36256l-30.07488 8.0896a10.41408 10.41408 0 0 0-7.34208 12.7488l8.05888 30.17728zM690.08384 153.8048l-8.05888-30.17728a10.38336 10.38336 0 0 0-12.70784-7.36256l-30.08512 8.07936c-5.5296 1.49504-8.81664 7.19872-7.33184 12.75904l8.04864 30.17728c1.49504 5.55008 7.17824 8.84736 12.70784 7.36256l30.08512-8.07936a10.4448 10.4448 0 0 0 7.34208-12.75904zM602.7264 349.76768c1.49504 5.55008 7.17824 8.84736 12.71808 7.36256l30.07488-8.07936c5.53984-1.49504 8.81664-7.19872 7.34208-12.75904l-8.05888-30.17728a10.38336 10.38336 0 0 0-12.70784-7.36256l-30.08512 8.0896c-5.5296 1.4848-8.81664 7.19872-7.33184 12.7488l8.04864 30.17728z" fill="#2D4552" p-id="3653"></path>
  <path d="M751.88224 215.94112c1.4848 5.55008 7.168 8.84736 12.70784 7.36256l30.07488-8.0896c5.53984-1.4848 8.81664-7.19872 7.34208-12.7488l-8.05888-30.17728a10.37312 10.37312 0 0 0-12.70784-7.36256l-30.07488 8.0896a10.43456 10.43456 0 0 0-7.34208 12.75904l8.05888 30.16704z m28.63104-93.93152l-8.05888-30.17728a10.37312 10.37312 0 0 0-12.70784-7.36256l-30.07488 8.0896a10.41408 10.41408 0 0 0-7.34208 12.7488l8.05888 30.17728c1.4848 5.55008 7.168 8.84736 12.70784 7.36256l30.07488-8.07936c5.53984-1.49504 8.81664-7.20896 7.34208-12.75904z m30.06464-8.0896c1.49504 5.55008 7.17824 8.84736 12.70784 7.36256l14.82752-3.98336a513.61792 513.61792 0 0 0-33.37216-25.2416l5.8368 21.8624z m-320.77824 86.24128c1.49504 5.55008 7.17824 8.84736 12.70784 7.36256l30.08512-8.0896a10.4448 10.4448 0 0 0 7.34208-12.75904l-8.05888-30.17728a10.38336 10.38336 0 0 0-12.70784-7.36256l-30.08512 8.07936a10.4448 10.4448 0 0 0-7.34208 12.75904l8.05888 30.18752z m377.8048-56.34048a10.12736 10.12736 0 0 0-6.17472-0.45056l-30.08512 8.0896c-5.5296 1.4848-8.81664 7.19872-7.34208 12.7488l8.05888 30.17728c1.49504 5.55008 7.17824 8.84736 12.70784 7.36256l30.08512-8.0896c5.5296-1.49504 8.81664-7.19872 7.33184-12.7488l-8.04864-30.17728-0.63488-1.28-5.89824-5.632z m-247.48032 21.30944l-8.05888-30.17728a10.37312 10.37312 0 0 0-12.70784-7.36256l-30.07488 8.07936a10.43456 10.43456 0 0 0-7.34208 12.75904l8.05888 30.16704c1.4848 5.56032 7.168 8.84736 12.70784 7.36256l30.07488-8.07936c5.53984-1.4848 8.81664-7.19872 7.34208-12.7488z m323.65568 85.46304l-6.21568-23.296c-3.26656-4.87424-6.69696-9.6256-10.12736-14.3872a10.2912 10.2912 0 0 0-4.42368 0.1536L692.44928 275.0464a10.43456 10.43456 0 0 0-7.34208 12.75904l8.05888 30.17728c1.4848 5.55008 7.168 8.84736 12.70784 7.36256l230.56384-61.98272a10.4448 10.4448 0 0 0 7.34208-12.76928z m-272.09728-13.09696c1.4848 5.56032 7.17824 8.8576 12.70784 7.3728l30.07488-8.0896c5.53984-1.4848 8.82688-7.19872 7.34208-12.7488l-8.05888-30.17728a10.36288 10.36288 0 0 0-12.6976-7.36256l-30.08512 8.0896c-5.5296 1.4848-8.81664 7.18848-7.34208 12.7488l8.05888 30.16704z m28.64128-93.93152l-8.05888-30.17728a10.38336 10.38336 0 0 0-12.70784-7.36256l-30.08512 8.07936c-5.5296 1.49504-8.81664 7.19872-7.33184 12.75904l8.04864 30.17728c1.49504 5.55008 7.17824 8.84736 12.70784 7.36256l30.08512-8.07936a10.4448 10.4448 0 0 0 7.34208-12.75904zM562.13504 310.07744l-30.07488 8.07936a10.43456 10.43456 0 0 0-7.34208 12.75904l8.05888 30.16704c1.4848 5.55008 7.168 8.84736 12.70784 7.36256l30.07488-8.07936c5.53984-1.49504 8.81664-7.19872 7.34208-12.75904L574.84288 317.44a10.37312 10.37312 0 0 0-12.70784-7.36256z m-38.13376-22.08768l30.08512-8.0896c5.5296-1.4848 8.81664-7.19872 7.33184-12.7488l-8.04864-30.16704a10.3936 10.3936 0 0 0-12.71808-7.3728l-30.07488 8.0896c-5.5296 1.49504-8.81664 7.19872-7.34208 12.7488l8.05888 30.17728c1.4848 5.55008 7.17824 8.8576 12.70784 7.36256z m88.96512 51.53792c1.49504 5.55008 7.17824 8.84736 12.71808 7.36256l30.07488-8.07936c5.53984-1.49504 8.81664-7.19872 7.34208-12.75904l-8.05888-30.17728a10.38336 10.38336 0 0 0-12.70784-7.36256l-30.08512 8.0896c-5.5296 1.4848-8.81664 7.19872-7.33184 12.7488l8.04864 30.17728z m-21.47328-80.46592c1.4848 5.55008 7.168 8.84736 12.70784 7.36256l30.07488-8.0896c5.53984-1.49504 8.81664-7.19872 7.34208-12.7488l-8.05888-30.17728a10.37312 10.37312 0 0 0-12.70784-7.36256l-30.07488 8.0896a10.41408 10.41408 0 0 0-7.34208 12.7488l8.05888 30.17728z" fill="#475F6C" p-id="3654"></path>
</svg>